<svg id="Layer_1" data-name="Layer 1" xmlns="http://www.w3.org/2000/svg" viewBox="0 0 92.69 50"><path d="M70.86,6.41C61.11,6.41,61.62,16,61.62,25s-.57,18.53,9.24,18.53v0c9.75,0,9.24-9.57,9.24-18.53S80.61,6.41,70.86,6.41Z"/><path d="M0,0V50H92.69V0ZM36.49,43.68h-.74L33.56,41.5a18.53,18.53,0,0,1-10,3.06c-10.21,0-17.8-8.79-17.8-19.11,0-11,7-20.06,17-20.06A13.53,13.53,0,0,1,32,8.67L34.69,6h.8l.17,10.88H34.47S33.22,6.18,23,6.18c-9.47,0-10.09,8.9-10.09,16.16,0,11.56,1.19,21,10.65,21,10.15,0,11.85-10.66,11.85-10.66h1.08ZM54.37,7H49.6V42.8h4.77v1.08H38.72V42.8h4.76V7H38.72V6H54.37ZM70.86,44.61c-10,0-16.27-11-16.27-19.55s6.27-19.5,16.27-19.5,16.27,11,16.27,19.5S80.84,44.61,70.86,44.61Z"/></svg>