<svg id="Layer_1" data-name="Layer 1" xmlns="http://www.w3.org/2000/svg" viewBox="0 0 324.32 50"><g id="Computerworld"><path d="M12.91,17.26c-.14-8.5-.41-9.52-2.18-9.52-2,0-2.24,1.3-2.24,17.19,0,15.08-.27,17.19,2.24,17.19,1.77,0,2.25-1,2.25-10.94L21.26,33c-.4,13.38-3.94,17-10.59,16.91C2,49.86,0,42.87,0,25,0,3.46,3.8,0,10.73,0c7.88,0,9.92,4.89,10.4,15.56Z"/><path d="M34.58,50c-7.41,0-10.67-4.82-10.67-25,0-21.47,3.6-25,10.74-25S45.38,3.19,45.38,25C45.38,46.47,41.64,50,34.58,50Zm.07-42.19c-1.91,0-2.25,1-2.25,17.19,0,15.9.21,17.19,2.25,17.19S36.89,40.9,36.89,25C36.89,8.42,36.41,7.81,34.65,7.81Z"/><path d="M69.29,49.52V20.92l-.88,7.34L65.76,49.52h-5.5L57.47,28.06l-.95-7.27V49.52h-8V.41H57.4L60.73,16.1l2.38,15.69,2-15.83L67.8.41h9.37V49.52Z"/><path d="M91.37,30.5h-1.9v19H81V.41h9.85c5.84,0,11.41,2.51,11.41,15.08C102.24,28.33,97,30.5,91.37,30.5ZM90.49,8.15h-1V22.69h.88c2.31,0,3.4-1.56,3.4-6.79S92.93,8.15,90.49,8.15Z"/><path d="M115.35,50c-7.61,0-10.73-4.62-10.73-16.58V.41h8.49V33.9c0,6.39,0,8.36,2.24,8.36s2.25-2,2.25-8.36V.41h8.49v33C126.09,44.36,123.17,50,115.35,50Z"/><path d="M143.75,8.22V49.46h-8.49V8.22H128V.41h22.35V8.22Z"/><path d="M152.51,49.52V.41H171l-1.56,7.74H160.8v11h7.41V27h-7.48V42.05h9.11l1.56,7.54H152.51Z"/><path d="M186.68,49.52l-3.19-23.16h-1.42V49.52h-8.22V.41h9.44c10.94,0,11.89,7.81,11.89,13s-.48,9.31-4,11.41l4.55,24.66ZM183.15,8.08h-1V18.55H183c2.31,0,3.66-1.5,3.66-5.1C186.68,9.38,185.26,8.08,183.15,8.08Z"/><path d="M225.88,49.52H218l-2.44-20.44c-.41-3.2-.55-4.76-.68-6.87-.14,2.11-.34,3.67-.75,6.93l-2.65,20.38H203.8L196.2.41h7.74l3.74,23.5a37.54,37.54,0,0,1,.4,6.12c.21-3.13.48-4.62.62-6.12L211.55.41h6.32l3,23.57a45.25,45.25,0,0,1,.55,6c.2-3.13.4-4.82.47-6.05L224.66.41h8Z"/><path d="M244.7,50C237.3,50,234,45.18,234,25c0-21.47,3.6-25,10.73-25S255.5,3.19,255.5,25C255.5,46.47,251.77,50,244.7,50Zm.07-42.19c-1.9,0-2.24,1-2.24,17.19,0,15.9.2,17.19,2.24,17.19S247,40.9,247,25C247,8.42,246.54,7.81,244.77,7.81Z"/><path d="M271.47,49.52l-3.2-23.16h-1.42V49.52h-8.22V.41h9.44C279,.41,280,8.22,280,13.45s-.48,9.31-4,11.41l4.55,24.66ZM267.93,8.08h-1V18.55h.88c2.31,0,3.67-1.5,3.67-5.1C271.47,9.38,270.11,8.08,267.93,8.08Z"/><path d="M283,49.52V.41h8.49V41.64h7.68l1.29,7.82H283Z"/><path d="M310.6,49.52h-8.09V.41h7.61c11.76,0,14.2,4,14.2,25S321.4,49.52,310.6,49.52ZM312,7.68h-1V42.26h.88c2.31,0,3.4-.48,3.4-16.85C315.22,8.63,314.4,7.68,312,7.68Z"/></g></svg>