<svg id="Layer_1" data-name="Layer 1" xmlns="http://www.w3.org/2000/svg" viewBox="0 0 143.35 144"><defs><style>.cls-1{fill:#bcb28e;}</style></defs><g id="Course_logo" data-name="Course logo"><path class="cls-1" d="M137,14.27h-8.14v-3.8A10.48,10.48,0,0,0,118.38,0H25a10.45,10.45,0,0,0-8.58,4.49,10.3,10.3,0,0,0-1.89,6V37.88H6.36a6.1,6.1,0,0,0-1.87.29A6.35,6.35,0,0,0,0,44.24V65.3a6.36,6.36,0,0,0,6.36,6.36H14.5v47.85h-4A10.5,10.5,0,0,0,0,130v3.55A10.49,10.49,0,0,0,10.47,144H118.38a10.48,10.48,0,0,0,10.47-10.47V119.37H137a6.36,6.36,0,0,0,6.36-6.35V92.37A6.36,6.36,0,0,0,137,86h-8.14V67.12H137a6.36,6.36,0,0,0,6.36-6.36V20.63A6.36,6.36,0,0,0,137,14.27ZM6.36,67.17A1.86,1.86,0,0,1,4.49,65.3V44.24a1.87,1.87,0,0,1,1.87-1.87H46a1.87,1.87,0,0,1,1.87,1.87V65.3A1.87,1.87,0,0,1,46,67.17H6.36ZM25,139.51H10.47a6,6,0,0,1-6-6V130a6,6,0,0,1,6-6h91.46a6,6,0,0,1,6,6v3.55a10.36,10.36,0,0,0,1.88,6H25Zm112-49a1.87,1.87,0,0,1,1.87,1.87V113a1.87,1.87,0,0,1-1.87,1.87H99.78A1.87,1.87,0,0,1,97.91,113V92.37a1.87,1.87,0,0,1,1.87-1.87H137ZM124.37,86H99.78a6.36,6.36,0,0,0-6.36,6.35V113a6.36,6.36,0,0,0,6.36,6.35h24.59v14.16a6,6,0,0,1-12,0V130a10.49,10.49,0,0,0-10.47-10.47H19V71.66H46a6.37,6.37,0,0,0,6.36-6.36V44.24A6.38,6.38,0,0,0,46,37.88H19V10.47a6,6,0,0,1,6-6h93.41a6,6,0,0,1,6,6v3.8H63.71a6.37,6.37,0,0,0-6.36,6.36V60.76a6.37,6.37,0,0,0,6.36,6.36h60.66Zm14.49-25.26A1.87,1.87,0,0,1,137,62.63H63.71a1.87,1.87,0,0,1-1.87-1.87V56L83.35,43.33l20.91,13.33a2.22,2.22,0,0,0,2.23.1l1.43-.73,4.48-2.32,11.8-6.1.17.1,4.48,2.62,10,5.84Zm-10-15.63-3.46-2a2.32,2.32,0,0,0-1-.3,2.19,2.19,0,0,0-1.14.25L112.4,48.65,107.92,51l-2.34,1.2-21-13.38a2.26,2.26,0,0,0-2.35,0l-20.42,12V20.63a1.87,1.87,0,0,1,1.87-1.87H137a1.87,1.87,0,0,1,1.87,1.87V51Z"/><path class="cls-1" d="M131.56,105.37H105.21a2.24,2.24,0,0,0,0,4.48h26.35a2.24,2.24,0,1,0,0-4.48Z"/><path class="cls-1" d="M112.4,95.9h-7.25a2.25,2.25,0,1,0,0,4.49h26.34a2.25,2.25,0,0,0,0-4.49H112.4Z"/><path class="cls-1" d="M112.89,23.16h-.49a8.79,8.79,0,0,0-4.48,1.51,8.88,8.88,0,0,0,0,14.74,8.79,8.79,0,0,0,4.48,1.51h.49a8.89,8.89,0,1,0,0-17.78Zm0,13.3a3.91,3.91,0,0,1-.49,0,4.41,4.41,0,0,1,0-8.76,3.91,3.91,0,0,1,.49,0,4.41,4.41,0,0,1,0,8.82Z"/><path class="cls-1" d="M82.05,77.16H30.27a6.36,6.36,0,0,0-6.36,6.36v20.64a6.36,6.36,0,0,0,6.36,6.36H82.05a6.37,6.37,0,0,0,6.36-6.36V83.52A6.37,6.37,0,0,0,82.05,77.16Zm1.87,27A1.87,1.87,0,0,1,82.05,106H30.27a1.87,1.87,0,0,1-1.87-1.87V83.52a1.87,1.87,0,0,1,1.87-1.87H82.05a1.87,1.87,0,0,1,1.87,1.87Z"/><path class="cls-1" d="M78.38,87.4a2,2,0,0,0-.21-.38,1.54,1.54,0,0,0-.28-.34,1.93,1.93,0,0,0-.34-.29,2.38,2.38,0,0,0-.39-.2,1.87,1.87,0,0,0-.42-.13,2.12,2.12,0,0,0-.87,0,2.25,2.25,0,0,0-.42.13,1.91,1.91,0,0,0-.73.49,1.88,1.88,0,0,0-.28.34,2,2,0,0,0-.2.38,2.25,2.25,0,0,0-.13.42,2,2,0,0,0,0,.88,2.25,2.25,0,0,0,.13.42,2.05,2.05,0,0,0,.2.39,3,3,0,0,0,.28.34,3.17,3.17,0,0,0,.34.28,1.79,1.79,0,0,0,.39.2,2.25,2.25,0,0,0,.42.13,2.12,2.12,0,0,0,.44,0,2.09,2.09,0,0,0,.43,0,1.87,1.87,0,0,0,.42-.13,1.79,1.79,0,0,0,.39-.2,2.42,2.42,0,0,0,.34-.28,2.2,2.2,0,0,0,.28-.34,2.93,2.93,0,0,0,.21-.39,3.38,3.38,0,0,0,.13-.42,2.44,2.44,0,0,0,0-.88A3.38,3.38,0,0,0,78.38,87.4Z"/><path class="cls-1" d="M76.31,95.9H69.2a2.25,2.25,0,1,0,0,4.49h7.11a2.25,2.25,0,0,0,0-4.49Z"/><path class="cls-1" d="M50.06,90.89H67.17a2.25,2.25,0,0,0,0-4.49H50.06a2.25,2.25,0,0,0,0,4.49Z"/><path class="cls-1" d="M59.69,95.9H35.78a2.25,2.25,0,1,0,0,4.49H59.69a2.25,2.25,0,0,0,0-4.49Z"/><path class="cls-1" d="M50.06,19.27H26.15a2.24,2.24,0,0,0,0,4.48H50.06a2.24,2.24,0,1,0,0-4.48Z"/><path class="cls-1" d="M43.21,12.83a2.42,2.42,0,0,0,.21.39,2.3,2.3,0,0,0,.28.34,1.81,1.81,0,0,0,.34.28,2.42,2.42,0,0,0,.39.21,2.77,2.77,0,0,0,.41.12,2.3,2.3,0,0,0,.45.05,2.24,2.24,0,0,0,1.58-.66,2.3,2.3,0,0,0,.28-.34,2.42,2.42,0,0,0,.21-.39,2.58,2.58,0,0,0,.12-.42,2.1,2.1,0,0,0,.05-.43,2.3,2.3,0,0,0-.05-.45,2.77,2.77,0,0,0-.12-.41,2.42,2.42,0,0,0-.21-.39,2.3,2.3,0,0,0-.28-.34,2.26,2.26,0,0,0-2-.61,1.93,1.93,0,0,0-.41.12,2.42,2.42,0,0,0-.39.21,2.29,2.29,0,0,0-.62.62,2.42,2.42,0,0,0-.21.39,2.8,2.8,0,0,0-.13.41A3.42,3.42,0,0,0,43,12a3.13,3.13,0,0,0,0,.43A2.58,2.58,0,0,0,43.21,12.83Z"/><path class="cls-1" d="M35.78,90.89h4.85a2.25,2.25,0,0,0,0-4.49H35.78a2.25,2.25,0,1,0,0,4.49Z"/><path class="cls-1" d="M34.48,13.84a2.82,2.82,0,0,0,.38.21l.42.12a2.28,2.28,0,0,0,.44.05,2.2,2.2,0,0,0,.44-.05l.42-.12a3.72,3.72,0,0,0,.39-.21,2.2,2.2,0,0,0,.34-.28A2.23,2.23,0,0,0,38,12a2.28,2.28,0,0,0,0-.45,2,2,0,0,0-.13-.41,1.79,1.79,0,0,0-.2-.39,3.17,3.17,0,0,0-.28-.34,3,3,0,0,0-.34-.28,3.72,3.72,0,0,0-.39-.21,2.21,2.21,0,0,0-.42-.12,2.17,2.17,0,0,0-.88,0,2.21,2.21,0,0,0-.42.12,2.82,2.82,0,0,0-.38.21,1.88,1.88,0,0,0-.34.28,1.81,1.81,0,0,0-.28.34,1.83,1.83,0,0,0-.21.39,2,2,0,0,0-.13.41,2.28,2.28,0,0,0,0,.45,2.24,2.24,0,0,0,.66,1.58A1.54,1.54,0,0,0,34.48,13.84Z"/><path class="cls-1" d="M23.19,62.9A2.27,2.27,0,0,0,24,63a2.23,2.23,0,0,0,2.1-1.48l4-11.14a2.24,2.24,0,0,0-4.22-1.53L21.84,60A2.26,2.26,0,0,0,23.19,62.9Z"/><path class="cls-1" d="M24.08,12.83a2.42,2.42,0,0,0,.21.39,2.29,2.29,0,0,0,.62.62,2.82,2.82,0,0,0,.38.21,3,3,0,0,0,.43.12,2.1,2.1,0,0,0,.43.05,2.27,2.27,0,0,0,1.59-.66A2.24,2.24,0,0,0,28.4,12a2.3,2.3,0,0,0,0-.45,2,2,0,0,0-.13-.41,1.79,1.79,0,0,0-.2-.39,2.3,2.3,0,0,0-.28-.34,2.25,2.25,0,0,0-2-.61,2.11,2.11,0,0,0-.43.12,2.82,2.82,0,0,0-.38.21,2.3,2.3,0,0,0-.34.28,1.81,1.81,0,0,0-.28.34,2.42,2.42,0,0,0-.21.39,1.93,1.93,0,0,0-.12.41,2.3,2.3,0,0,0-.05.45,2.1,2.1,0,0,0,.05.43A1.86,1.86,0,0,0,24.08,12.83Z"/><path class="cls-1" d="M34.1,61.46a2.21,2.21,0,0,0,1.62.7,2.26,2.26,0,0,0,1.55-.62l4.93-4.7a2.21,2.21,0,0,0,.7-1.65,2.27,2.27,0,0,0-.74-1.64l-4.93-4.46a2.24,2.24,0,0,0-3,3.33l3.14,2.84-3.19,3A2.24,2.24,0,0,0,34.1,61.46Z"/><path class="cls-1" d="M15,55.14,18.1,52.3a2.24,2.24,0,1,0-3-3.33l-4.94,4.46a2.26,2.26,0,0,0-.74,1.63,2.29,2.29,0,0,0,.7,1.66l4.94,4.7a2.24,2.24,0,0,0,3.09-3.25Z"/></g></svg>