<svg id="Layer_1" data-name="Layer 1" xmlns="http://www.w3.org/2000/svg" viewBox="0 0 85.8 80"><defs><style>.cls-1{fill:#2f2e41;}.cls-2{fill:#bcb28e;}</style></defs><g id="Small_logo" data-name="Small logo"><path class="cls-1" d="M37.89,56.54a20.23,20.23,0,0,1-8-1.36,11.53,11.53,0,0,1-4.8-3.58,8.36,8.36,0,0,1-1.73-4.7,1,1,0,0,1,.31-.7,1,1,0,0,1,.75-.31H30.5a1.87,1.87,0,0,1,1,.24,2.92,2.92,0,0,1,.65.62,5.24,5.24,0,0,0,1.08,1.39,5,5,0,0,0,1.82,1.08,8.14,8.14,0,0,0,2.81.41,8.28,8.28,0,0,0,4.2-.86,2.65,2.65,0,0,0,1.41-2.35,2.28,2.28,0,0,0-.76-1.76,6.93,6.93,0,0,0-2.48-1.24,41.15,41.15,0,0,0-4.53-1.13,28.11,28.11,0,0,1-6.22-2,9.56,9.56,0,0,1-3.91-3.22,8.65,8.65,0,0,1-1.34-5,8.77,8.77,0,0,1,1.65-5.23,10.9,10.9,0,0,1,4.63-3.6A17.69,17.69,0,0,1,37.6,22a17.83,17.83,0,0,1,5.83.87,13.16,13.16,0,0,1,4.25,2.3A11.09,11.09,0,0,1,50.3,28.2a6.92,6.92,0,0,1,.93,3.14,1,1,0,0,1-.29.7.92.92,0,0,1-.72.31H43.89a2,2,0,0,1-.91-.19,1.89,1.89,0,0,1-.68-.62,3.25,3.25,0,0,0-1.51-1.85,5.76,5.76,0,0,0-3.19-.79,6.12,6.12,0,0,0-3.29.74,2.52,2.52,0,0,0-1.17,2.28,2.43,2.43,0,0,0,.64,1.68,5.27,5.27,0,0,0,2.16,1.25A37.34,37.34,0,0,0,40.1,36a31.77,31.77,0,0,1,7,2,8.88,8.88,0,0,1,3.94,3.17A8.87,8.87,0,0,1,52.34,46a8.91,8.91,0,0,1-1.85,5.64,11.53,11.53,0,0,1-5.11,3.63A21,21,0,0,1,37.89,56.54Z"/><path class="cls-1" d="M70.91,56.54a18.62,18.62,0,0,1-7.8-1.48,11.45,11.45,0,0,1-5-4.37,14.56,14.56,0,0,1-2-7.15c0-1.32,0-2.72,0-4.23s0-2.94,0-4.32a14.33,14.33,0,0,1,2-7.08,11.58,11.58,0,0,1,5.08-4.41A18.25,18.25,0,0,1,70.91,22a20.6,20.6,0,0,1,5.86.8,14.42,14.42,0,0,1,4.7,2.3,10.85,10.85,0,0,1,3.14,3.65,10.44,10.44,0,0,1,1.18,4.82.83.83,0,0,1-.26.72,1.08,1.08,0,0,1-.75.29H78.3a1.59,1.59,0,0,1-1-.26,2.15,2.15,0,0,1-.57-1,5.56,5.56,0,0,0-2.19-3.48,7,7,0,0,0-3.72-.93,5.76,5.76,0,0,0-4.17,1.46Q65.15,31.83,65,35.23c-.1,2.63-.1,5.31,0,8.07q.13,3.41,1.68,4.87a5.81,5.81,0,0,0,4.17,1.46,7,7,0,0,0,3.75-1,5.41,5.41,0,0,0,2.16-3.45,1.78,1.78,0,0,1,.55-1,1.67,1.67,0,0,1,1-.26h6.48a1,1,0,0,1,.75.29.83.83,0,0,1,.26.72,10.44,10.44,0,0,1-1.18,4.82,11,11,0,0,1-3.14,3.65,14.62,14.62,0,0,1-4.7,2.3A20.61,20.61,0,0,1,70.91,56.54Z"/><path id="_10px" data-name="10px" class="cls-2" d="M40,75A35,35,0,1,1,56.64,9.21,1,1,0,0,0,58,8.84l1.5-2.6a1,1,0,0,0-.38-1.38,40,40,0,1,0,0,70.28,1,1,0,0,0,.38-1.38L58,71.16a1,1,0,0,0-1.35-.37A35,35,0,0,1,40,75Z"/></g></svg>