<?xml version="1.0" encoding="utf-8"?>
<!-- Generator: Adobe Illustrator 25.2.3, SVG Export Plug-In . SVG Version: 6.00 Build 0)  -->
<svg version="1.1" id="Layer_1" xmlns="http://www.w3.org/2000/svg" xmlns:xlink="http://www.w3.org/1999/xlink" x="0px" y="0px"
	 viewBox="0 0 780.4 587.7" style="enable-background:new 0 0 780.4 587.7;" xml:space="preserve">
<style type="text/css">
	.st0{fill:#FFB6B6;}
	.st1{fill:#2F2E41;}
	.st2{fill:#444354;}
	.st3{fill:#BCB28E;}
	.st4{fill:#FFFFFF;}
	.st5{fill:#CACACA;}
	.st6{opacity:0.35;}
</style>
<g id="IMG">
	<polygon class="st0" points="712.5,572.8 698.7,572.8 692.1,519.8 712.5,519.8 	"/>
	<path class="st1" d="M712.9,587.2l-42.3,0v-0.5c0-9.1,7.4-16.5,16.5-16.5h0l7.7-5.9l14.4,5.9l3.7,0L712.9,587.2z"/>
	<polygon class="st0" points="690.2,508.6 679.4,517.1 641.5,479.4 657.5,466.8 	"/>
	<path class="st1" d="M699.5,519.6l-33.3,26.1l-0.3-0.4c-5.6-7.2-4.4-17.5,2.8-23.1l0,0l2.5-9.4l15-4.3l2.9-2.3L699.5,519.6z"/>
	<path class="st1" d="M625.4,266.8c0,0-18.3,18.9-10.1,62.9l-6.8,75.3l-1.8,3.5c-2.1,4.3-1.3,9.4,2.1,12.8l0,0l1.4,4.5l1.4,8.8
		l50.4,75.8l19.3-20.3l-31.1-71l8.5-18.3l19.6-63.6l13.5,116.4L689,553.6h25.9L731,442L747.9,285l-8.8-18.3H625.4z"/>
	<path class="st2" d="M743.7,299.3l0.2-0.3c9.9-13.8-5-47-7.2-51.8l0,0c5.5-1.8,8.9-7.2,8.3-12.9l-1-8.2l-1-8l7.2-7.2l0-0.2
		l4.1-36.2l6-24.1c4.6-18.5-1.1-38.1-15-51.2L731.4,97l-16.9-16.3h-27.3l-9.4,8.9c-17.5,3.1-20.5,2.1-35.5,20.1l6.8,56l1.7,7.7
		l0,10.4l-4.3,4.8c-3.2,3.5-4.5,8.3-3.5,12.9l0.6,2.8l0,0c-4.5,1.9-8.7,35.9-9.7,40.6l-1.5,7.1c-1.3,1.7-9.9,13.1-9.9,16.3
		c0,0.5,0.3,0.9,1.1,1.4c5.8,4,29.1,32,43.4,26.3c15.2-6.1,75.7,3,76.4,3.1L743.7,299.3z"/>
	<path class="st0" d="M747.3,234.2c0,0-7-39.6,0.1-54.5l28,2l-4.3,56.5L746.6,301c1.2,6-2.8,11.9-8.8,13.1c-6,1.2-11.9-2.8-13.1-8.8
		c-0.8-4,0.7-8.1,3.8-10.7L747.3,234.2z"/>
	<path class="st2" d="M775.4,158.7l-1.7-18.9c-1.3-14.3-8.3-27.6-19.4-36.8l0,0c-7-5.7-16.6-7-24.8-3.3l0,0
		c-11.3,5.2-16.6,18.3-12.2,29.9c6.5,17,4.1,34.9,16.8,37.1l-1.4,6.5l12.4,40.5l35.3-4.1L775.4,158.7z"/>
	<path class="st0" d="M589,215.5c0,0,20.5-34.6,35.6-41.3l19.9,19.8l-40.1,40L545,265.6c-3.1,5.3-9.9,7.2-15.2,4.1
		c-5.3-3.1-7.2-9.9-4.1-15.2c2-3.5,5.8-5.7,9.9-5.6L589,215.5z"/>
	<path class="st2" d="M659.5,176.5l11-15.4c8.4-11.7,11.7-26.3,9.3-40.5l0,0c-1.6-8.9-8-16.1-16.7-18.6l0,0
		c-11.9-3.4-24.5,3-28.7,14.7c-6.2,17.1-28.6,45.2-20.5,55.1l-5.3,4.1l-8,22.8l29.5,19.9L659.5,176.5z"/>
	<circle class="st0" cx="702.7" cy="42.6" r="30.3"/>
	<path class="st1" d="M724.7,63.9c0.3-0.2,0.5-0.5,0.8-0.7c0,0,0,0,0,0.1L724.7,63.9z"/>
	<path class="st1" d="M677.9,10.6c1.5-2.4,3.6-4.4,6.1-5.8c1.7-0.8,3.5-1.5,5.3-1.9l4.8-1.3c2.5-0.8,5-1.3,7.5-1.5
		c7.2-0.4,14.1,3.4,17.7,9.6c1.4,2.6,2.6,5.8,5.4,6.7c2.3,0.8,4.7-0.3,7.1-0.1c2.8,0.4,5.2,2.2,6.5,4.8c1.2,2.5,1.8,5.3,1.7,8.1
		c0.2,12.9-5.1,25.3-14.5,34c-0.8-2.1,0.5-4.3,1.5-6.3c1-2,1.7-4.8-0.1-6.2c-1.9-1.6-5,0-7.3-1.1c-1.5-0.8-2.4-2.4-2.5-4.1
		c-0.2-1.7,0-3.3-0.1-5c-0.4-6.9-6.4-12.2-13.3-11.7c0,0-0.1,0-0.1,0c-5.2,0.4-10.2,3.9-15.2,2.4c-2.3-0.7-4.3-2.4-6.7-2.7
		c-2.7-0.3-5.2,1.2-7.5,2.6C672.6,24.1,673.9,16.7,677.9,10.6z"/>
	<path class="st3" d="M572.8,571.7l7.7-12.4l1.5,7.1c0.3,1.2,0.5,2.5,0.8,3.8c2.2-1.9,4.5-3.6,6.8-5.3c7-5.1,14-10.2,21-15.3
		l-2.2,12.7c-1.4,7.8-2.8,15.8-6.1,23c-0.4,0.8-0.8,1.6-1.2,2.4h-32.5c-0.3-0.7-0.4-1.5-0.5-2.2c0,0,0-0.1,0-0.2
		C567.6,580.4,570.2,575.9,572.8,571.7z"/>
	<path class="st3" d="M8.7,558.7l14-22.5l2.8,12.8c0.5,2.2,1,4.5,1.4,6.8c4-3.4,8.2-6.5,12.3-9.5c12.7-9.2,25.4-18.4,38.1-27.7
		l-4,23c-2.4,14.2-5,28.7-11.1,41.6c-0.7,1.5-1.4,2.9-2.2,4.3h-59c-0.5-1.3-0.8-2.7-1-4.1c0-0.1,0-0.2,0-0.3
		C-0.8,574.5,4.1,566.2,8.7,558.7z"/>
	<path class="st2" d="M538.8,241.4v287c0,7.6-6.2,13.8-13.8,13.8H99.7c-7.6,0-13.8-6.2-13.8-13.8v-287c0-7.6,6.2-13.8,13.8-13.8H525
		C532.6,227.7,538.8,233.8,538.8,241.4z"/>
	<path class="st4" d="M528.8,245v279.9c0,4.1-3.3,7.4-7.4,7.4H103.2c-4.1,0-7.4-3.3-7.4-7.4V245c0-4.1,3.3-7.4,7.4-7.4h418.2
		C525.5,237.6,528.8,240.9,528.8,245z"/>
	<path class="st1" d="M547.7,584.4c-1.6,2-4,3.1-6.5,3.1H85.8c-4.6,0-8.4-3.8-8.4-8.4c0-0.6,0.1-1.1,0.2-1.7l7.1-33.6
		c0.6-2.8,2.6-5.1,5.2-6.1c0.9-0.4,2-0.6,3-0.6h441.3c1,0,2,0.2,3,0.6c2.7,1,4.6,3.3,5.2,6.1l7.1,33.6
		C549.9,579.9,549.3,582.5,547.7,584.4z"/>
	<path class="st2" d="M96.6,551.7h13.1c0.3,0,0.5-0.2,0.5-0.5v-7.4c0-0.3-0.2-0.5-0.5-0.5H96.6c-0.3,0-0.5,0.2-0.5,0.5v7.4
		C96.1,551.5,96.3,551.7,96.6,551.7z"/>
	<path class="st2" d="M124.6,551.7h13.1c0.3,0,0.5-0.2,0.5-0.5v-7.4c0-0.3-0.2-0.5-0.5-0.5h-13.1c-0.3,0-0.5,0.2-0.5,0.5v7.4
		C124.1,551.5,124.3,551.7,124.6,551.7z"/>
	<path class="st2" d="M152.7,551.7h13.1c0.3,0,0.5-0.2,0.5-0.5v-7.4c0-0.3-0.2-0.5-0.5-0.5h-13.1c-0.3,0-0.5,0.2-0.5,0.5v7.4
		C152.2,551.5,152.4,551.7,152.7,551.7z"/>
	<path class="st2" d="M180.7,551.7h13.1c0.3,0,0.5-0.2,0.5-0.5v-7.4c0-0.3-0.2-0.5-0.5-0.5h-13.1c-0.3,0-0.5,0.2-0.5,0.5v7.4
		C180.2,551.5,180.4,551.7,180.7,551.7z"/>
	<path class="st2" d="M208.8,551.7h13.1c0.3,0,0.5-0.2,0.5-0.5v-7.4c0-0.3-0.2-0.5-0.5-0.5h-13.1c-0.3,0-0.5,0.2-0.5,0.5v7.4
		C208.3,551.5,208.5,551.7,208.8,551.7z"/>
	<path class="st2" d="M236.8,551.7h13.1c0.3,0,0.5-0.2,0.5-0.5v-7.4c0-0.3-0.2-0.5-0.5-0.5h-13.1c-0.3,0-0.5,0.2-0.5,0.5v7.4
		C236.3,551.5,236.6,551.7,236.8,551.7z"/>
	<path class="st2" d="M264.9,551.7h13.1c0.3,0,0.5-0.2,0.5-0.5v-7.4c0-0.3-0.2-0.5-0.5-0.5h-13.1c-0.3,0-0.5,0.2-0.5,0.5v7.4
		C264.4,551.5,264.6,551.7,264.9,551.7z"/>
	<path class="st2" d="M292.9,551.7H306c0.3,0,0.5-0.2,0.5-0.5v-7.4c0-0.3-0.2-0.5-0.5-0.5h-13.1c-0.3,0-0.5,0.2-0.5,0.5v7.4
		C292.4,551.5,292.7,551.7,292.9,551.7z"/>
	<path class="st2" d="M321,551.7H334c0.3,0,0.5-0.2,0.5-0.5v-7.4c0-0.3-0.2-0.5-0.5-0.5H321c-0.3,0-0.5,0.2-0.5,0.5v7.4
		C320.5,551.5,320.7,551.7,321,551.7z"/>
	<path class="st2" d="M349,551.7h13.1c0.3,0,0.5-0.2,0.5-0.5v-7.4c0-0.3-0.2-0.5-0.5-0.5H349c-0.3,0-0.5,0.2-0.5,0.5v7.4
		C348.6,551.5,348.8,551.7,349,551.7z"/>
	<path class="st2" d="M377.1,551.7h13.1c0.3,0,0.5-0.2,0.5-0.5v-7.4c0-0.3-0.2-0.5-0.5-0.5h-13.1c-0.3,0-0.5,0.2-0.5,0.5v7.4
		C376.6,551.5,376.8,551.7,377.1,551.7z"/>
	<path class="st2" d="M405.2,551.7h13.1c0.3,0,0.5-0.2,0.5-0.5v-7.4c0-0.3-0.2-0.5-0.5-0.5h-13.1c-0.3,0-0.5,0.2-0.5,0.5v7.4
		C404.7,551.5,404.9,551.7,405.2,551.7z"/>
	<path class="st2" d="M433.2,551.7h13.1c0.3,0,0.5-0.2,0.5-0.5v-7.4c0-0.3-0.2-0.5-0.5-0.5h-13.1c-0.3,0-0.5,0.2-0.5,0.5v7.4
		C432.7,551.5,432.9,551.7,433.2,551.7z"/>
	<path class="st2" d="M461.3,551.7h13.1c0.3,0,0.5-0.2,0.5-0.5v-7.4c0-0.3-0.2-0.5-0.5-0.5h-13.1c-0.3,0-0.5,0.2-0.5,0.5v7.4
		C460.8,551.5,461,551.7,461.3,551.7z"/>
	<path class="st2" d="M489.3,551.7h13.1c0.3,0,0.5-0.2,0.5-0.5v-7.4c0-0.3-0.2-0.5-0.5-0.5h-13.1c-0.3,0-0.5,0.2-0.5,0.5v7.4
		C488.8,551.5,489.1,551.7,489.3,551.7z"/>
	<path class="st2" d="M517.4,551.7h13.1c0.3,0,0.5-0.2,0.5-0.5v-7.4c0-0.3-0.2-0.5-0.5-0.5h-13.1c-0.3,0-0.5,0.2-0.5,0.5v7.4
		C516.9,551.5,517.1,551.7,517.4,551.7z"/>
	<path class="st2" d="M96.2,565.7h13.1c0.3,0,0.5-0.2,0.5-0.5v-7.4c0-0.3-0.2-0.5-0.5-0.5H96.2c-0.3,0-0.5,0.2-0.5,0.5v7.4
		C95.7,565.5,96,565.7,96.2,565.7z"/>
	<path class="st2" d="M124.3,565.7h13.1c0.3,0,0.5-0.2,0.5-0.5v-7.4c0-0.3-0.2-0.5-0.5-0.5h-13.1c-0.3,0-0.5,0.2-0.5,0.5v7.4
		C123.8,565.5,124,565.7,124.3,565.7z"/>
	<path class="st2" d="M152.3,565.7h13.1c0.3,0,0.5-0.2,0.5-0.5v-7.4c0-0.3-0.2-0.5-0.5-0.5h-13.1c-0.3,0-0.5,0.2-0.5,0.5v7.4
		C151.8,565.5,152.1,565.7,152.3,565.7z"/>
	<path class="st2" d="M180.4,565.7h13.1c0.3,0,0.5-0.2,0.5-0.5v-7.4c0-0.3-0.2-0.5-0.5-0.5h-13.1c-0.3,0-0.5,0.2-0.5,0.5v7.4
		C179.9,565.5,180.1,565.7,180.4,565.7z"/>
	<path class="st2" d="M208.4,565.7h13.1c0.3,0,0.5-0.2,0.5-0.5v-7.4c0-0.3-0.2-0.5-0.5-0.5h-13.1c-0.3,0-0.5,0.2-0.5,0.5v7.4
		C208,565.5,208.2,565.7,208.4,565.7z"/>
	<path class="st2" d="M236.5,565.7h13.1c0.3,0,0.5-0.2,0.5-0.5v-7.4c0-0.3-0.2-0.5-0.5-0.5h-13.1c-0.3,0-0.5,0.2-0.5,0.5v7.4
		C236,565.5,236.2,565.7,236.5,565.7z"/>
	<path class="st2" d="M264.6,565.7h13.1c0.3,0,0.5-0.2,0.5-0.5v-7.4c0-0.3-0.2-0.5-0.5-0.5h-13.1c-0.3,0-0.5,0.2-0.5,0.5v7.4
		C264.1,565.5,264.3,565.7,264.6,565.7z"/>
	<path class="st2" d="M292.6,565.7h13.1c0.3,0,0.5-0.2,0.5-0.5v-7.4c0-0.3-0.2-0.5-0.5-0.5h-13.1c-0.3,0-0.5,0.2-0.5,0.5v7.4
		C292.1,565.5,292.3,565.7,292.6,565.7z"/>
	<path class="st2" d="M320.7,565.7h13.1c0.3,0,0.5-0.2,0.5-0.5v-7.4c0-0.3-0.2-0.5-0.5-0.5h-13.1c-0.3,0-0.5,0.2-0.5,0.5v7.4
		C320.2,565.5,320.4,565.7,320.7,565.7z"/>
	<path class="st2" d="M348.7,565.7h13.1c0.3,0,0.5-0.2,0.5-0.5v-7.4c0-0.3-0.2-0.5-0.5-0.5h-13.1c-0.3,0-0.5,0.2-0.5,0.5v7.4
		C348.2,565.5,348.4,565.7,348.7,565.7z"/>
	<path class="st2" d="M376.8,565.7h13.1c0.3,0,0.5-0.2,0.5-0.5v-7.4c0-0.3-0.2-0.5-0.5-0.5h-13.1c-0.3,0-0.5,0.2-0.5,0.5v7.4
		C376.3,565.5,376.5,565.7,376.8,565.7z"/>
	<path class="st2" d="M404.8,565.7h13.1c0.3,0,0.5-0.2,0.5-0.5v-7.4c0-0.3-0.2-0.5-0.5-0.5h-13.1c-0.3,0-0.5,0.2-0.5,0.5v7.4
		C404.3,565.5,404.6,565.7,404.8,565.7z"/>
	<path class="st2" d="M432.9,565.7h13.1c0.3,0,0.5-0.2,0.5-0.5v-7.4c0-0.3-0.2-0.5-0.5-0.5h-13.1c-0.3,0-0.5,0.2-0.5,0.5v7.4
		C432.4,565.5,432.6,565.7,432.9,565.7z"/>
	<path class="st2" d="M460.9,565.7H474c0.3,0,0.5-0.2,0.5-0.5v-7.4c0-0.3-0.2-0.5-0.5-0.5h-13.1c-0.3,0-0.5,0.2-0.5,0.5v7.4
		C460.4,565.5,460.7,565.7,460.9,565.7z"/>
	<path class="st2" d="M489,565.7H502c0.3,0,0.5-0.2,0.5-0.5v-7.4c0-0.3-0.2-0.5-0.5-0.5H489c-0.3,0-0.5,0.2-0.5,0.5v7.4
		C488.5,565.5,488.7,565.7,489,565.7z"/>
	<path class="st2" d="M517,565.7h13.1c0.3,0,0.5-0.2,0.5-0.5v-7.4c0-0.3-0.2-0.5-0.5-0.5H517c-0.3,0-0.5,0.2-0.5,0.5v7.4
		C516.6,565.5,516.8,565.7,517,565.7z"/>
	<path class="st2" d="M261.9,582.6h111.2c0.3,0,0.5-0.2,0.5-0.5v-7.4c0-0.3-0.2-0.5-0.5-0.5H261.9c-0.3,0-0.5,0.2-0.5,0.5v7.4
		C261.4,582.3,261.6,582.6,261.9,582.6z"/>
	<path class="st2" d="M217.1,407.2c0.1,52.3,42.6,94.6,94.8,94.5c52.3-0.1,94.6-42.6,94.5-94.8c-0.1-52.3-42.6-94.6-94.8-94.5
		c-39.4,0.1-74.7,24.6-88.5,61.5c-0.2,0.6-0.4,1.1-0.6,1.7v0c-0.9,2.5-1.6,5-2.3,7.5C218.1,390.9,217.1,399.1,217.1,407.2z"/>
	<path class="st3" d="M322.8,342.9c8.7-4.7,19-5.1,28.1-1.1c3.9,1.7,8.1,4.8,9.4,10.3c-5.3-3.1-12.1,1.8-13.5,9.7l0.3,0.1
		c0.7,5.5-0.9,11.5-4,14.9c-0.5-3.1-2.3-5.8-5-7.4c-2.3-1.5-4.8-2.6-6.6-5.2c-2.1-3.1-2.6-7.5-3.4-11.6S325.6,344,322.8,342.9z"/>
	<path class="st3" d="M352.4,389.6c1.5,2.2,3.4,3.6,5.2,5.3c2,1.8,3.4,4.3,3.8,7c0.2,1.9-0.1,3.9-0.1,5.8c0,1.9,0.7,4.1,2,4.6
		c2.1,0.8,3.7-3.1,5.8-3.4c1.7-0.2,3.2,2.5,2.7,4.8s-2.8,3.3-4.1,1.8c-1.2,2-0.4,5.7,1.5,6.3c0.2,1.3,0.4,2.5,0.6,3.8
		c4.6-3.2,9.2-6.4,13.1-11.1c4.3-5.2,7-11.5,7.7-18.2c0.5-5.4-0.2-11.5,2.2-15.7c2-3.3,5.4-4,8.4-3.8c0.6,0,1.1,0.1,1.7,0.2
		c-1.8-5.4-4.1-10.6-6.8-15.6c-0.6-0.3-1.2-0.6-1.7-1.1c-2.8-2.4-4.1-7.3-6.4-10.7c-0.1-0.2-0.3-0.4-0.5-0.6
		c-2.4-3.1-5.5-4.7-8.6-6.1c-6.7-3.3-13.7-6.6-20.8-6.1l2,0.2c2.4,6.6,4.7,13.3,7.1,19.9c0.4,1,0.7,2,1.1,3.1
		c1.3,3.8,2.7,7.8,2.5,12c-0.1,2.5-1,5.2-2.6,6c-1.5,0.8-3.2-0.2-4.7-1.1c-0.6-0.4-1.3-0.8-1.9-1.2c-2.3-1.5-4.8-2.9-7.2-2
		c-2.2,0.9-3.8,3.9-4.1,7.1C350,383.8,350.7,386.9,352.4,389.6z"/>
	<path class="st3" d="M339,434.8c6.6-4.1,13.2-8.1,19.8-12.2l-0.1-0.3c4.1,1.6,5.8,8.9,5.1,14.8s-3,11.3-4.1,17.1
		c-1.6,8-1,16.2,1.7,23.8c-8.7-9.7-16.4-20.3-22.9-31.6c-0.9-1.4-1.6-3-2.1-4.6c-0.5-1.7-0.3-3.6,0.5-5.2
		C337.4,435.9,338.1,435.3,339,434.8z"/>
	<path class="st3" d="M365,360.9c0.8,1.7,0.9,3.6,0.3,5.3c-0.7,1.4-1.8,2.5-3.3,3l-3.6,1.8c-1.2,0.6-2.5,1.2-3.8,0.7
		c-1.5-0.6-2.5-2.9-2.3-5.1c0.3-2.3,1.7-3.9,3.1-5.3c1.9-1.9,3.8-3.8,5.7-5.7l1.1,1.3C363.4,358.1,364.3,359.4,365,360.9z"/>
	<path class="st3" d="M236.6,385.6c-1.6,0.4-3.3,0.8-4.9,1.2c0.3,5.5,3,10.7,6.7,12.5c1.5,0.8,3.2,1.1,4.5,2.5
		c1.1,1.3,1.7,3.4,2.3,5.3c0.9,3.4,1.9,6.8,2.8,10.2c1,3.7,2.3,7.8,4.9,9.1c2.2,1.1,4.8-0.3,6.5-2.6c1.7-2.3,2.8-5.5,3.8-8.5
		c-0.1,3.3,1.5,6.6,3.7,7.8c2.2,1.2,4.9,0.1,6.4-2.5c1.1-1.9,1.5-4.3,2.5-6.2c1-1.9,3.2-3,4.3-1.2c0.7,1.2,0.7,3,1,4.5
		c0.4,2,2,3.6,4.1,3.9c1.9,0,3.6-0.8,4.9-2.2c3.2-3.3,5.4-7.6,6-12.2c0.5-2.2,0.4-4.5-0.2-6.6c-0.7-2.1-2.2-3.6-3.8-3.3
		c-1-2.2,1-5,2.8-4.8c1.8,0.3,3.3,2.2,4.8,3.7c1.5,1.5,3.6,2.6,5.1,1.1c-0.1,1.1,0.8,2.1,1.9,2.2c0.1,0,0.1,0,0.2,0
		c1-0.3,1.9-0.8,2.7-1.5c3.5-2.2,7.8-0.7,10.3,3.4c-1.5-6.5-3.8-14-8.5-15.6c-1.9-0.6-4-0.1-5.8-1.2c-3.2-1.9-3.9-9.2-1.1-12.2
		c-0.4,2.8-0.3,6.2,1.2,8.1c1.5,1.9,4.7,0.7,4.5-2.2c0.1,1.1,1.1,1.8,2.1,1.7c0.6-0.1,1.2-0.4,1.5-1c1-1.5,0.9-4,0.2-5.8
		c-0.7-1.6-1.8-3.1-3.1-4.4c-2.5-2.7-5.1-5.4-8-7.1c-2.9-1.7-6.3-2.3-9.2-0.6c-1.5,0.9-2.9,2.4-4.5,3.2c-1.6,1-3.6,0.5-4.6-1.1
		c0,0,0-0.1-0.1-0.1c-1.2-2.1-0.6-5.1-1.1-7.7c-0.8-4.5-5.3-6.7-7.8-3.7c1.9-0.5,3.8,1.7,4.1,4.4c0.2,2.7-1.1,5.4-2.9,6.2
		c-3.1,1.4-6.1-2.1-8.4-5.2c-2.4-3.3-4.8-6.6-7.3-9.9c-0.4-0.6-0.8-1.1-1.3-1.6c-1.6-1.5-4.1-1.6-5.7-0.1c-2.4,2-3.6,6.1-5.6,8.9
		c-2.9,4.1-7.3,5.1-11.3,5.9c-3,0.6-6,1.2-9.1,1.8c-2,3.8-3.8,7.6-5.3,11.6C228.6,376.4,233.3,380.5,236.6,385.6z"/>
	<path class="st3" d="M220.1,383.1c0.6,1.8,1,3.7,1,5.7c2.6-3.2,3-9.1,1.3-13.2C221.6,378,220.8,380.5,220.1,383.1z"/>
	<path class="st3" d="M226.8,449.3c2.3,4.6,4.9,9,7.9,13.2c1.9-0.8,4,0.6,5.7,2c1.9,1.4,4.1,2.8,6,1.5c2-1.3,2.6-5.1,2-8
		c-0.7-2.7-2-5.3-3.7-7.5c-1.6-2.4-3.3-4.8-5.5-5.8c-2.2-0.9-5.1,0.4-5.7,3.5l-1.6-0.1c0.9-1.2,0.4-3.7-0.8-4.1
		c-1.4-0.5-2.5,1.4-3.3,3C227.6,447.8,227.2,448.5,226.8,449.3z"/>
	<path class="st3" d="M286.9,426.9c3.4,0.2,6-3.9,7.8-8s3.4-8.7,6.4-10.8c1.7-1.2,3.7-1.3,5.6-1.9c2.2-0.5,3.9-2.1,4.8-4.2l2.1-0.9
		c3,1.5,5.7,3.4,8.1,5.8c2.7,2.9,4.4,6.6,4.8,10.6c0.4,4.3-1.1,9-3.9,10.7c-2.2,1.3-4.8,0.5-7.1,1.6c-2.8,1.5-4.5,5.7-5.1,9.8
		s-0.5,8.5-0.9,12.7s-1.7,8.6-4.3,10.8c-3.2,2.7-8,0.5-9.4-4.5c-0.7-2.4-0.7-5.1-1.2-7.6c-0.9-4.4-3.5-7.7-5.5-11.3
		S285.5,431.1,286.9,426.9z"/>
	<path class="st3" d="M320.1,383.6c-0.3,0.3-0.6,0.6-0.9,0.9c-0.6,1-0.5,2.2,0.1,3.2c-0.8,0-1.6-0.4-2.1-1.1
		c-0.6-0.7-1.2-1.5-1.6-2.3c-0.4-0.6-0.6-1.3-0.5-2c0.2-0.5,0.5-0.6,0.8-1c0.4-0.7,0.6-1.4,0.7-2.1c0.3-1.4,1.4-2.6,2.8-3l-0.2,0
		c0.6,0.3,0.9,1,0.7,1.7c-0.1,0.7-0.5,1.2-0.5,1.9c0.1,1,1,1.4,1.1,2.4C320.6,382.8,320.5,383.2,320.1,383.6z"/>
	<path class="st3" d="M325.9,367.1L325.9,367.1c-0.1-0.1-0.2-0.2-0.3-0.3L325.9,367.1z"/>
	<path class="st3" d="M324.9,371.7c-0.8-0.7-1.2-1.8-0.9-2.9c0.2-1.1,1.1-1.8,1.9-1.6c0.5,0.5,1.2,0.7,1.8,0.5
		c0.5-0.1,1-0.5,1.5-0.1c0.2,0.3,0.4,0.6,0.5,1c0.2,0.5,0.3,1,0.5,1.5c0.1,0.2,0.1,0.4,0.1,0.6c-0.1,0.2-0.2,0.3-0.4,0.3
		c-1,0.3-1.9,0.6-2.9,0.8C326.3,372,325.6,372,324.9,371.7z"/>
	<path class="st3" d="M253.1,434.5c0.4-0.7,0.9-1.4,1.3-2.2c0.4-0.8,1-1.6,1.7-2.2c0.7-0.5,1.6-0.5,2.2,0.2c0,0,0,0,0,0l-0.1,0.4
		c-1.2,1.3-2,2.8-2.3,4.5c-0.1,0.7-0.1,1.5-0.2,2.2c0,0.7-0.3,1.3-0.8,1.8c-0.7,0.5-1.5-0.2-2-1.1c-0.4-0.7-0.6-1.5-0.6-2.3
		C252.6,435.4,252.8,434.9,253.1,434.5z"/>
	<path class="st3" d="M246.2,435.4c-0.1-0.7,0-1.4,0.2-2c0-0.9-0.2-1.8-0.7-2.5c-0.5-0.7-0.8-1.5-1-2.3c-0.1-0.4-0.1-0.8,0.1-1.1
		c0.1-0.3,0.5-0.5,0.7-0.2l-0.4,0.3c0.6-0.1,1.2-0.1,1.8,0.1c0.7,0.3,1.2,0.8,1.3,1.5c0.1,0.5,0.2,1,0.3,1.6
		c0.3,0.5,0.8,0.7,1.1,1.2c0.4,0.8,0.4,1.8,0,2.7c-0.4,0.7-1,1.2-1.8,1.4C247.1,436.1,246.4,436.1,246.2,435.4z"/>
	<path class="st3" d="M233.9,439.1c-0.2,0.5-0.4,1-0.8,1.4c-0.6,0.6-1.4,0.2-2.1,0.1c-1.3-0.2-2.6,0.3-3.5,1.4
		c0.6-2.8,2.4-5.2,5.1-6.3c1.7-0.6,3.4-0.9,5.2-0.8l0.3,0.1C237.4,437.2,235,437.1,233.9,439.1z"/>
	<path class="st3" d="M285.9,443.7L285.9,443.7l-0.1-0.2L285.9,443.7z"/>
	<path class="st3" d="M287.8,447.3c0.4,0.7,0.8,1.5,1,2.3c0.4,1.3,0.6,2.6,0.8,3.9c0.1,0.8,0.1,1.7-0.4,2.1
		c-0.3,0.2-0.7,0.1-0.9-0.1c-0.3-0.3-0.5-0.6-0.6-0.9c-0.9-1.6-1.7-3.3-2.2-5.1c-0.5-1.9-0.4-3.9,0.4-5.7
		C286.5,444.9,287.2,446.1,287.8,447.3z"/>
	<path class="st3" d="M305.8,351.2c-0.6,0.6-1.5,0.8-2.3,0.4c-0.8-0.3-1.5-0.8-2.2-1.4c-0.5-0.4-1-0.9-1.3-1.4
		c-0.4-0.7-0.5-1.5-0.3-2.2c0.3-0.7,0.9-1.2,1.7-1.3c1.1-0.3,2.1-0.6,3.2-0.9l-0.8-0.7c0.8-0.4,1.7,0.4,2.1,1.3
		c0.3,0.6,0.5,1.3,0.7,2C307,348.5,306.7,350,305.8,351.2z"/>
	<path class="st3" d="M287.1,345c-0.6,0.7-1.7,0.8-2.4,0.2c-0.6-0.5-1-1.1-1.1-1.9c-0.1-0.8,0.3-1.8,0.9-1.8l-0.1-0.8
		c1.1-0.2,2.5-0.2,3.1,1.1C288,342.8,287.8,344.1,287.1,345z"/>
	<path class="st5" d="M118.7,288.3H506c0.6,0,1-0.5,1-1c0-0.5-0.4-1-1-1H118.7c-0.6,0-1,0.5-1,1
		C117.7,287.9,118.1,288.3,118.7,288.3z"/>
	<ellipse class="st2" cx="483.6" cy="262.9" rx="10.9" ry="11.2"/>
	<ellipse class="st2" cx="445.9" cy="262.9" rx="10.9" ry="11.2"/>
	<ellipse class="st2" cx="408.2" cy="262.9" rx="10.9" ry="11.2"/>
	<path class="st2" d="M141.3,254.5h26.8c1.1,0,2,0.9,2,2.1c0,1.1-0.9,2-2,2h-26.8c-1.1,0-2-0.9-2-2.1
		C139.3,255.4,140.2,254.5,141.3,254.5z"/>
	<path class="st2" d="M141.3,262.1h26.8c1.1,0,2,0.9,2,2.1c0,1.1-0.9,2-2,2h-26.8c-1.1,0-2-0.9-2-2.1
		C139.3,263,140.2,262.2,141.3,262.1z"/>
	<path class="st2" d="M141.3,269.7h26.8c1.1,0,2,0.9,2,2.1c0,1.1-0.9,2-2,2h-26.8c-1.1,0-2-0.9-2-2.1
		C139.3,270.6,140.2,269.8,141.3,269.7z"/>
	<g class="st6">
		<path class="st4" d="M108.4,411.9c-6.2-2.7,6.4-4.3,20.8-4.8s31.7-0.5,40.9-2c8.9-1.4,8.2-4,9-6.3s4.2-4.7,18-5.2
			c17.2-0.6,45.7,1.8,58.7,0.3c12.1-1.4,4.9-5.7,22.6-5.9c10.1-0.1,23.1,1.3,34.4,1.7c8,0.3,16-0.1,23.9-1.2c5.5-0.9,9.3-2,15.5-2.8
			c16.2-2.1,47.9-1.4,76.2,1.3s52.5,7,66.2,11.4s17.5,8.6,14.3,12.2c-2,2.3-7.2,4.5-19.9,5.4c-23.6,1.7-65.7-1.3-90.1,0.3
			c-13.6,0.9-19.6,3.1-31.6,4.3c-12.8,1.3-31.6,1.4-50,1.3c-38.4-0.1-77.8-0.5-118-1.2c-16.8-0.3-34.4-0.7-52.2-2.1
			s-36.1-4.2-39.8-6.8"/>
	</g>
</g>
</svg>
