<?xml version="1.0" encoding="utf-8"?>
<!-- Generator: Adobe Illustrator 25.2.3, SVG Export Plug-In . SVG Version: 6.00 Build 0)  -->
<svg version="1.1" id="Layer_1" xmlns="http://www.w3.org/2000/svg" xmlns:xlink="http://www.w3.org/1999/xlink" x="0px" y="0px"
	 viewBox="0 0 144 142.9" style="enable-background:new 0 0 144 142.9;" xml:space="preserve">
<style type="text/css">
	.st0{fill:#BCB28E;}
</style>
<g id="LMS_logo">
	<path class="st0" d="M133.9,0H24.6c-5.6,0-10.1,4.5-10.1,10.1v61.3h-4.5c-5.3,0-9.7,4.1-10.1,9.3c0,0.3,0,0.5,0,0.8v51.4
		c0,5.6,4.5,10.1,10.1,10.1h51.5c5.2,0,9.6-4,10-9.2h34.4c4.1,0,7.4-3.3,7.4-7.4c0-4.1-3.3-7.4-7.4-7.4h-6.1l-1.4-14.8h35.6
		c5.6,0,10.1-4.5,10.1-10.1c0,0,0,0,0,0v-84C144,4.5,139.5,0,133.9,0z M61.5,138.5H10.1c-3.1,0-5.6-2.5-5.6-5.6l0,0V81.4
		c0-0.3,0-0.5,0.1-0.8c0.4-2.8,2.7-4.8,5.5-4.8h51.5c2.8,0,5.2,2.1,5.5,4.8c0,0.2,0,0.5,0,0.8v51.4c0,0.3,0,0.6-0.1,0.8
		C66.6,136.4,64.3,138.4,61.5,138.5z M100.2,123.5h5.7c1.6,0,2.9,1.3,2.9,2.9s-1.3,2.9-2.9,2.9H71.6v-5.8
		C71.6,123.5,100.2,123.5,100.2,123.5z M95.3,119H71.6v-14.8h22.3L95.3,119z M139.5,94.1c0,3.1-2.5,5.6-5.6,5.6l0,0H71.6V85.1h67.9
		V94.1z M71.5,80.7c-0.4-5.2-4.7-9.3-10-9.3H19V10.1c0-3.1,2.5-5.6,5.6-5.6l0,0h109.3c3.1,0,5.6,2.5,5.6,5.6c0,0,0,0,0,0v70.6
		L71.5,80.7z"/>
	<path class="st0" d="M125.1,95.1h5.5c1.2,0,2.2-1,2.2-2.2c0-1.2-1-2.2-2.2-2.2h-5.5c-1.2,0-2.2,1-2.2,2.2
		C122.9,94.1,123.9,95.1,125.1,95.1z"/>
	<path class="st0" d="M30.3,23.7c0,0.1-0.1,0.1-0.1,0.2c0,0.1-0.1,0.2-0.1,0.2c0,0.1,0,0.1,0,0.2c0,0.2,0,0.3,0,0.5
		c0,0.1,0,0.1,0,0.2c0,0.1,0,0.2,0.1,0.2c0,0.1,0,0.1,0.1,0.2c0.1,0.3,0.3,0.5,0.5,0.7l0.1,0.1l0.2,0.1l0.1,0.1c0,0,0,0,0.1,0
		l0.1,0.1l0.1,0.1l0.1,0l5.3,2.4v16.7c0,1.2,1,2.2,2.2,2.2c0,0,0,0,0,0h32.3c1.2,0,2.2-1,2.2-2.2V29.3l2.9-1.3v11.6
		c0,1.2,1,2.2,2.2,2.2c1.2,0,2.2-1,2.2-2.2v-15c0-0.1,0-0.1,0-0.2s0-0.1,0-0.1c0,0,0-0.1,0-0.1l0,0c0,0,0-0.1,0-0.1c0,0,0,0,0-0.1
		c0,0,0-0.1,0-0.1c0-0.1,0-0.1-0.1-0.2c0,0,0,0,0-0.1l0,0c-0.1-0.1-0.1-0.2-0.2-0.3l0,0l0,0c0,0,0,0,0-0.1l0,0l-0.1-0.1l0,0L80.3,23
		l0,0l-0.1-0.1l0,0l-0.1-0.1l0,0L80,22.7l0,0c-0.1-0.1-0.2-0.1-0.3-0.2h-0.1l-6-2.6l-4.5-2l-12.6-5.5c-0.6-0.2-1.2-0.2-1.8,0
		l-13.4,5.8l-4.5,1.9l-5.5,2.4l0,0l-0.1,0.1c-0.1,0.1-0.2,0.1-0.3,0.2l-0.2,0.1L30.7,23l-0.1,0.1l-0.1,0.1l-0.1,0.1 M69.1,43.4H41.3
		V31l13.4,5.8c0.6,0.2,1.2,0.2,1.8,0l12.6-5.5V43.4z M69.1,26.4l-13.5,5.9l-14.3-6.2l-3.4-1.5l3.4-1.5l14.3-6.2l13.5,5.9l4.1,1.8
		L69.1,26.4z"/>
	<path class="st0" d="M71.3,62.5H39.1c-1.2,0.1-2.2,1.2-2.1,2.4c0.1,1.1,1,2,2.1,2.1h32.3c1.2,0.1,2.3-0.9,2.4-2.1
		c0.1-1.2-0.9-2.3-2.1-2.4C71.5,62.5,71.4,62.5,71.3,62.5z"/>
	<path class="st0" d="M71.3,57c1.2-0.1,2.2-1.2,2.1-2.4c-0.1-1.1-1-2-2.1-2.1H48.7c-1.2-0.1-2.3,0.9-2.4,2.1s0.9,2.3,2.1,2.4
		c0.1,0,0.2,0,0.3,0H71.3z"/>
	<path class="st0" d="M56.3,99.7c-4.1-11.3-16.7-17.2-28-13s-17.2,16.7-13,28s16.7,17.2,28,13c8.6-3.1,14.4-11.3,14.4-20.5
		c0-1-0.1-2-0.2-3C57.2,102.6,56.9,101.1,56.3,99.7z M35.8,124.5c-9.6,0-17.4-7.8-17.4-17.4c0-1.6,0.2-3.1,0.6-4.6
		c0.4-1.5,1-2.9,1.8-4.2c4.9-8.2,15.6-10.9,23.8-6c2.9,1.8,5.3,4.4,6.8,7.5c0.7,1.4,1.2,2.9,1.4,4.5c0.2,1,0.2,2,0.2,3
		C53.2,116.7,45.4,124.5,35.8,124.5z"/>
	<path class="st0" d="M39.1,57H43c1.2,0.1,2.3-0.9,2.4-2.1s-0.9-2.3-2.1-2.4c-0.1,0-0.2,0-0.3,0h-3.9c-1.2,0.1-2.2,1.2-2.1,2.4
		C37.1,56,38,56.9,39.1,57z"/>
	<path class="st0" d="M43.5,105.8l-2.9-1.7l-7.4-4.2c-1.1-0.6-2.4-0.2-3.1,0.8c-0.2,0.3-0.3,0.7-0.3,1.1v11.7c0,0.8,0.4,1.5,1.1,1.9
		c0.7,0.4,1.5,0.4,2.2,0l10.3-5.8c1.1-0.6,1.4-2,0.8-3.1C44.1,106.3,43.8,106,43.5,105.8L43.5,105.8z M34.3,109.8v-4l3.6,2
		L34.3,109.8z"/>
	<path class="st0" d="M120.3,44.5h-6.2l-4.5,4.5l-2.1,2l-2.1-2.1l-4.5-4.4h-5.7c-0.2,0-0.3,0-0.5,0c-5.3,0.3-9.5,4.7-9.6,10v6.9
		c0,5.6,4.5,10.1,10,10.1c0,0,0,0,0.1,0h24.7c5.6,0,10.1-4.5,10.1-10.1v-6.9C130.1,49.1,125.8,44.6,120.3,44.5z M125.7,61.5
		c0,3.1-2.5,5.6-5.6,5.6H95.3c-3.1,0-5.6-2.5-5.6-5.6v-6.9c0-3.1,2.5-5.6,5.6-5.6h3.8l6.9,6.8c0.9,0.9,2.3,0.9,3.1,0c0,0,0,0,0,0
		l6.8-6.8h4.1c3.1,0,5.6,2.5,5.6,5.6L125.7,61.5z"/>
	<path class="st0" d="M106.5,43.8h2.3c4.7,0,8.7-3.2,9.8-7.8c0.2-0.7,0.3-1.5,0.3-2.3v-8.9c0-5.6-4.5-10.1-10.1-10.1h-2.3
		c-5.6,0-10.1,4.5-10.1,10.1v8.9c0,0.2,0,0.5,0,0.7C96.8,39.8,101.2,43.9,106.5,43.8z M100.9,24.8c0-3.1,2.5-5.6,5.6-5.6h2.3
		c3.1,0,5.6,2.5,5.6,5.6v3.7c-1.5-1.3-2.8-2.9-3.8-4.7c-0.6-1.1-2-1.5-3.1-0.9c-0.3,0.2-0.6,0.4-0.8,0.7c-1.4,2.2-3.5,4-5.9,5.1l0,0
		L100.9,24.8z M100.9,33.6c0.6-0.2,1.3-0.5,1.9-0.8c2.2-1,4.1-2.4,5.7-4.1c1.2,1.6,2.7,3,4.3,4.2c0.5,0.4,1,0.7,1.6,1
		c-0.2,3-2.6,5.3-5.6,5.3h-2.3C103.4,39.3,100.9,36.8,100.9,33.6L100.9,33.6z"/>
</g>
</svg>
