<svg id="Layer_1" data-name="Layer 1" xmlns="http://www.w3.org/2000/svg" viewBox="0 0 321.42 80"><defs><style>.cls-1{fill:#2f2e41;}.cls-2{fill:#bcb28e;}</style></defs><g id="Main_logo" data-name="Main logo"><path class="cls-1" d="M37.89,56.54a20.23,20.23,0,0,1-8-1.36,11.53,11.53,0,0,1-4.8-3.58,8.36,8.36,0,0,1-1.73-4.7,1,1,0,0,1,.31-.7,1,1,0,0,1,.75-.31H30.5a1.87,1.87,0,0,1,1,.24,2.92,2.92,0,0,1,.65.62,5.24,5.24,0,0,0,1.08,1.39,5,5,0,0,0,1.82,1.08,8.14,8.14,0,0,0,2.81.41,8.28,8.28,0,0,0,4.2-.86,2.65,2.65,0,0,0,1.41-2.35,2.28,2.28,0,0,0-.76-1.76,6.93,6.93,0,0,0-2.48-1.24,41.15,41.15,0,0,0-4.53-1.13,28.11,28.11,0,0,1-6.22-2,9.56,9.56,0,0,1-3.91-3.22,8.65,8.65,0,0,1-1.34-5,8.77,8.77,0,0,1,1.65-5.23,10.9,10.9,0,0,1,4.63-3.6A17.69,17.69,0,0,1,37.6,22a17.83,17.83,0,0,1,5.83.87,13.16,13.16,0,0,1,4.25,2.3A11.09,11.09,0,0,1,50.3,28.2a6.92,6.92,0,0,1,.93,3.14,1,1,0,0,1-.29.7.92.92,0,0,1-.72.31H43.89a2,2,0,0,1-.91-.19,1.89,1.89,0,0,1-.68-.62,3.25,3.25,0,0,0-1.51-1.85,5.76,5.76,0,0,0-3.19-.79,6.12,6.12,0,0,0-3.29.74,2.52,2.52,0,0,0-1.17,2.28,2.43,2.43,0,0,0,.64,1.68,5.27,5.27,0,0,0,2.16,1.25A37.34,37.34,0,0,0,40.1,36a31.77,31.77,0,0,1,7,2,8.88,8.88,0,0,1,3.94,3.17A8.87,8.87,0,0,1,52.34,46a8.91,8.91,0,0,1-1.85,5.64,11.53,11.53,0,0,1-5.11,3.63A21,21,0,0,1,37.89,56.54Z"/><path class="cls-1" d="M70.91,56.54a18.62,18.62,0,0,1-7.8-1.48,11.45,11.45,0,0,1-5-4.37,14.56,14.56,0,0,1-2-7.15c0-1.32,0-2.72,0-4.23s0-2.94,0-4.32a14.33,14.33,0,0,1,2-7.08,11.58,11.58,0,0,1,5.08-4.41A18.25,18.25,0,0,1,70.91,22a20.6,20.6,0,0,1,5.86.8,14.42,14.42,0,0,1,4.7,2.3,10.88,10.88,0,0,1,3.15,3.65,10.56,10.56,0,0,1,1.17,4.82.8.8,0,0,1-.26.72,1.08,1.08,0,0,1-.75.29H78.3a1.59,1.59,0,0,1-1-.26,2.15,2.15,0,0,1-.57-1,5.56,5.56,0,0,0-2.19-3.48,7,7,0,0,0-3.72-.93,5.76,5.76,0,0,0-4.17,1.46Q65.15,31.83,65,35.23c-.1,2.63-.1,5.31,0,8.07q.13,3.41,1.68,4.87a5.81,5.81,0,0,0,4.17,1.46,7,7,0,0,0,3.75-1,5.41,5.41,0,0,0,2.16-3.45,1.78,1.78,0,0,1,.55-1,1.67,1.67,0,0,1,1-.26h6.48a1,1,0,0,1,.75.29.8.8,0,0,1,.26.72,10.56,10.56,0,0,1-1.17,4.82,11,11,0,0,1-3.15,3.65,14.62,14.62,0,0,1-4.7,2.3A20.61,20.61,0,0,1,70.91,56.54Z"/><path class="cls-1" d="M104.56,56.54a18.9,18.9,0,0,1-7.68-1.44,11.15,11.15,0,0,1-5.09-4.34,14.57,14.57,0,0,1-2-7.27c0-1.38,0-2.75,0-4.13s0-2.77,0-4.18a14.56,14.56,0,0,1,2-7.27,11.46,11.46,0,0,1,5.11-4.44,20.23,20.23,0,0,1,15.24,0,11.65,11.65,0,0,1,5.16,4.44,14.15,14.15,0,0,1,2,7.27c.07,1.41.1,2.8.1,4.18s0,2.75-.1,4.13a14.78,14.78,0,0,1-2,7.27,11.15,11.15,0,0,1-5.09,4.34A18.93,18.93,0,0,1,104.56,56.54Zm0-6.91a5.78,5.78,0,0,0,4.15-1.53q1.61-1.55,1.71-4.9c.06-1.41.09-2.74.09-4s0-2.55-.09-3.89a8.83,8.83,0,0,0-.84-3.67,4.8,4.8,0,0,0-2-2.09,6.38,6.38,0,0,0-3-.67,6.26,6.26,0,0,0-2.93.67,4.89,4.89,0,0,0-2.06,2.09,8.51,8.51,0,0,0-.87,3.67c0,1.34,0,2.64,0,3.89s0,2.57,0,4a7.08,7.08,0,0,0,1.73,4.9A5.7,5.7,0,0,0,104.56,49.63Z"/><path class="cls-1" d="M126.21,56.06a1.13,1.13,0,0,1-1.2-1.2V23.66a1.17,1.17,0,0,1,.33-.86,1.2,1.2,0,0,1,.87-.34h13q6.19,0,9.77,2.86a9.77,9.77,0,0,1,3.58,8.09A9.72,9.72,0,0,1,151,39.17a10.34,10.34,0,0,1-4.34,3.55l6.62,11.81a1.16,1.16,0,0,1,.15.53,1,1,0,0,1-.32.69,1,1,0,0,1-.74.31H146a1.78,1.78,0,0,1-1.34-.45,3.57,3.57,0,0,1-.62-.84l-5.48-10.56H133.6V54.86a1.15,1.15,0,0,1-1.2,1.2Zm7.39-18.62h5.57a4.68,4.68,0,0,0,3.38-1.1,4.07,4.07,0,0,0,1.13-3,4.23,4.23,0,0,0-1.08-3,4.51,4.51,0,0,0-3.43-1.15H133.6Z"/><path class="cls-1" d="M159.37,56.06a1.2,1.2,0,0,1-.84-.33,1.14,1.14,0,0,1-.36-.87V23.66a1.12,1.12,0,0,1,.36-.86,1.21,1.21,0,0,1,.84-.34h5.19a1.59,1.59,0,0,1,1.17.41,2.27,2.27,0,0,1,.51.65l8.45,15.17,8.44-15.17a5.26,5.26,0,0,1,.51-.65,1.5,1.5,0,0,1,1.17-.41H190a1.28,1.28,0,0,1,.89.34,1.12,1.12,0,0,1,.36.86v31.2a1.14,1.14,0,0,1-.36.87,1.27,1.27,0,0,1-.89.33h-5.71a1.27,1.27,0,0,1-.89-.33,1.14,1.14,0,0,1-.36-.87v-18l-5.42,10a2.21,2.21,0,0,1-.58.76,1.54,1.54,0,0,1-1.06.34h-2.49a1.54,1.54,0,0,1-1.06-.34,3,3,0,0,1-.62-.76l-5.43-10v18a1.13,1.13,0,0,1-1.2,1.2Z"/><path class="cls-1" d="M204.83,56.54a10.6,10.6,0,0,1-4.63-1A8.37,8.37,0,0,1,197,52.9a6.39,6.39,0,0,1-1.2-3.8,6.31,6.31,0,0,1,2.78-5.4A17.25,17.25,0,0,1,205.93,41l6-.91v-.67a4.19,4.19,0,0,0-.72-2.64,3.2,3.2,0,0,0-2.64-.91,4.07,4.07,0,0,0-2.18.52,3.81,3.81,0,0,0-1.32,1.44,1.38,1.38,0,0,1-1.2.63h-5.38a1.07,1.07,0,0,1-.81-.31.93.93,0,0,1-.24-.75,4.05,4.05,0,0,1,.65-2,8.2,8.2,0,0,1,2-2.23,10.89,10.89,0,0,1,3.45-1.83,15.89,15.89,0,0,1,5.09-.72,17.31,17.31,0,0,1,5.33.72,9.45,9.45,0,0,1,3.58,2,8.19,8.19,0,0,1,2,3,10.86,10.86,0,0,1,.67,3.86V54.86a1.14,1.14,0,0,1-.36.87,1.2,1.2,0,0,1-.84.33h-5.57a1.15,1.15,0,0,1-1.2-1.2V53.18a7,7,0,0,1-1.68,1.68,8.65,8.65,0,0,1-2.47,1.23A10.91,10.91,0,0,1,204.83,56.54Zm2.26-5.47a5.33,5.33,0,0,0,2.52-.6,4.18,4.18,0,0,0,1.77-1.87,7,7,0,0,0,.65-3.19v-.67l-4.08.72a7.54,7.54,0,0,0-3.29,1.17,2.3,2.3,0,0,0-1,1.85,2.1,2.1,0,0,0,.48,1.39,3.1,3.1,0,0,0,1.25.89A4.52,4.52,0,0,0,207.09,51.07Z"/><path class="cls-1" d="M235.93,56.54a17.75,17.75,0,0,1-5.3-.69,12.11,12.11,0,0,1-3.55-1.71,7.81,7.81,0,0,1-2-2.08,4.16,4.16,0,0,1-.72-1.85,1.05,1.05,0,0,1,.33-.89,1.19,1.19,0,0,1,.82-.36h5.47a.54.54,0,0,1,.24,0,1.51,1.51,0,0,1,.29.19,7.6,7.6,0,0,1,1.25.84,6.76,6.76,0,0,0,1.44.89,4.68,4.68,0,0,0,2,.38,4.36,4.36,0,0,0,2.25-.53,1.71,1.71,0,0,0,.91-1.58,1.86,1.86,0,0,0-.43-1.27,4.28,4.28,0,0,0-1.75-1,26.07,26.07,0,0,0-4-1,19.27,19.27,0,0,1-4.37-1.51A7.2,7.2,0,0,1,225.9,42a6.46,6.46,0,0,1-1-3.67,6.33,6.33,0,0,1,1.25-3.69,9,9,0,0,1,3.65-2.91,13.86,13.86,0,0,1,5.9-1.13,16.08,16.08,0,0,1,4.83.65A12.3,12.3,0,0,1,244,32.93,8.47,8.47,0,0,1,246.11,35a3.93,3.93,0,0,1,.77,1.92,1.05,1.05,0,0,1-.29.84,1,1,0,0,1-.77.36h-5a1,1,0,0,1-.38-.07,1.54,1.54,0,0,1-.34-.17A5.92,5.92,0,0,1,239,37.1a7.1,7.1,0,0,0-1.35-.86,4.21,4.21,0,0,0-1.92-.38,3.16,3.16,0,0,0-2,.57,1.83,1.83,0,0,0-.72,1.49,1.78,1.78,0,0,0,.41,1.15,3.62,3.62,0,0,0,1.68,1,32,32,0,0,0,4,1,14.88,14.88,0,0,1,5.28,1.71,7.15,7.15,0,0,1,2.78,2.73,7.06,7.06,0,0,1,.82,3.29,6.5,6.5,0,0,1-1.37,4.08,8.82,8.82,0,0,1-4.06,2.76A19.23,19.23,0,0,1,235.93,56.54Z"/><path class="cls-1" d="M264.88,56.06a13,13,0,0,1-5.31-1A7.27,7.27,0,0,1,256.14,52a10.74,10.74,0,0,1-1.2-5.4V37.39H251.2a1.27,1.27,0,0,1-.89-.33,1.15,1.15,0,0,1-.36-.87V32.3a1.12,1.12,0,0,1,.36-.86,1.28,1.28,0,0,1,.89-.34h3.74V23.18a1.12,1.12,0,0,1,.36-.86,1.21,1.21,0,0,1,.84-.34h5.57a1.18,1.18,0,0,1,.86.34,1.14,1.14,0,0,1,.34.86V31.1h6a1.18,1.18,0,0,1,.86.34,1.14,1.14,0,0,1,.34.86v3.89a1.15,1.15,0,0,1-1.2,1.2h-6v8.55a4.77,4.77,0,0,0,.62,2.59,2.34,2.34,0,0,0,2.12,1h3.69a1.13,1.13,0,0,1,1.2,1.2v4.17a1.19,1.19,0,0,1-.33.87,1.21,1.21,0,0,1-.87.33Z"/><path class="cls-1" d="M286.05,56.54q-5.67,0-9-3.07t-3.5-9.12V42.67a13.84,13.84,0,0,1,1.7-6.5A10.3,10.3,0,0,1,279.54,32,14,14,0,0,1,286,30.62a13.24,13.24,0,0,1,7,1.68,10.62,10.62,0,0,1,4.15,4.56,14.93,14.93,0,0,1,1.4,6.58v1.15a1.15,1.15,0,0,1-.36.87,1.2,1.2,0,0,1-.84.33H282v.34a7.86,7.86,0,0,0,.48,2.54,3.85,3.85,0,0,0,1.34,1.83,3.67,3.67,0,0,0,2.21.67,3.85,3.85,0,0,0,1.61-.31,4.42,4.42,0,0,0,1.08-.72c.28-.28.51-.51.67-.7a2.63,2.63,0,0,1,.69-.6,2.19,2.19,0,0,1,.84-.12h6a1.21,1.21,0,0,1,.79.26.82.82,0,0,1,.26.75,4.23,4.23,0,0,1-.81,2A10.38,10.38,0,0,1,294.85,54a12.12,12.12,0,0,1-3.67,1.84A16.55,16.55,0,0,1,286.05,56.54ZM282,41h8.11v-.1a7.1,7.1,0,0,0-.46-2.68,3.72,3.72,0,0,0-1.39-1.78,3.89,3.89,0,0,0-2.23-.62,3.7,3.7,0,0,0-2.19.62,4,4,0,0,0-1.36,1.78,6.9,6.9,0,0,0-.48,2.68Z"/><path class="cls-1" d="M304.24,56.06a1.21,1.21,0,0,1-.87-.33,1.19,1.19,0,0,1-.33-.87V32.3a1.2,1.2,0,0,1,.33-.84,1.15,1.15,0,0,1,.87-.36h5.52a1.12,1.12,0,0,1,.86.36,1.17,1.17,0,0,1,.34.84v1.92a8.88,8.88,0,0,1,3.09-2.3,9.81,9.81,0,0,1,4.06-.82h2.11a1.21,1.21,0,0,1,.84.34,1.12,1.12,0,0,1,.36.86v5a1.23,1.23,0,0,1-1.2,1.2h-4.66a3.76,3.76,0,0,0-4.12,4.13V54.86a1.14,1.14,0,0,1-.36.87,1.27,1.27,0,0,1-.89.33Z"/><path id="_10px" data-name="10px" class="cls-2" d="M40,75A35,35,0,1,1,56.64,9.21,1,1,0,0,0,58,8.84l1.5-2.6a1,1,0,0,0-.38-1.38,40,40,0,1,0,0,70.28,1,1,0,0,0,.38-1.38L58,71.16a1,1,0,0,0-1.35-.37A35,35,0,0,1,40,75Z"/></g></svg>