<svg id="Layer_1" data-name="Layer 1" xmlns="http://www.w3.org/2000/svg" viewBox="0 0 162.74 144"><defs><style>.cls-1{fill:#bcb28e;}.cls-2{fill:#2f2e41;}</style></defs><g id="Step_3" data-name="Step 3"><path class="cls-1" d="M107.49,10.53a1,1,0,0,0-.37-1.39A72.05,72.05,0,0,0,72,0C32.5,0,0,32.5,0,72s32.5,72,72,72a72.05,72.05,0,0,0,35.12-9.14,1,1,0,0,0,.37-1.39l-3-5.19a1,1,0,0,0-1.35-.37,64,64,0,1,1,0-111.82,1,1,0,0,0,1.35-.37Z"/><line class="cls-1" x1="104" y1="127.43" x2="104" y2="127.43"/><path class="cls-2" d="M71.54,107a33.31,33.31,0,0,1-12-2,22.89,22.89,0,0,1-8.4-5.42,23.63,23.63,0,0,1-5-8.07,33.07,33.07,0,0,1-2-9.88c-.07-1.73-.11-3.7-.15-5.91s0-4.45,0-6.72.08-4.3.15-6.09a31.75,31.75,0,0,1,2.06-9.84,22.86,22.86,0,0,1,5.19-8,23.65,23.65,0,0,1,8.44-5.33,33,33,0,0,1,11.76-1.92,32.85,32.85,0,0,1,11.81,1.92,23.75,23.75,0,0,1,8.4,5.33,23.39,23.39,0,0,1,5.23,8,29.1,29.1,0,0,1,2,9.84q.19,2.68.24,6.09t0,6.72q0,3.32-.24,5.91a30.21,30.21,0,0,1-2,9.88,23.91,23.91,0,0,1-5.09,8.07A22.85,22.85,0,0,1,83.59,105,33.18,33.18,0,0,1,71.54,107Zm0-13.92q5,0,7.25-3.22a15.35,15.35,0,0,0,2.35-8.68q.19-2.79.24-5.86t0-6.14q0-3.08-.24-5.67a15.21,15.21,0,0,0-2.35-8.54q-2.25-3.27-7.25-3.36-5,.09-7.2,3.36a16.06,16.06,0,0,0-2.4,8.54c-.06,1.73-.11,3.62-.14,5.67s0,4.09,0,6.14.08,4,.14,5.86a15.59,15.59,0,0,0,2.5,8.68C66,92,68.34,93,71.54,93Z"/><path class="cls-2" d="M134.52,107a40.15,40.15,0,0,1-12.77-1.78,26.32,26.32,0,0,1-8.64-4.6,19.74,19.74,0,0,1-5-6,14.69,14.69,0,0,1-1.73-6.19A1.86,1.86,0,0,1,107,86.9a2.08,2.08,0,0,1,1.48-.58H121a3.35,3.35,0,0,1,1.83.43,4.31,4.31,0,0,1,1.25,1.39,7.23,7.23,0,0,0,2.25,3,8.45,8.45,0,0,0,3.6,1.58,22.84,22.84,0,0,0,4.61.44c3.26,0,5.81-.76,7.63-2.26a7.57,7.57,0,0,0,2.74-6.19c0-2.75-.87-4.72-2.59-5.91S138.1,77,134.9,77H124.25a2.3,2.3,0,0,1-2.4-2.4V69.23a4,4,0,0,1,.48-2,3.46,3.46,0,0,1,1-1.25l15.75-13.35H112.44a2.37,2.37,0,0,1-1.68-.67,2.26,2.26,0,0,1-.72-1.73v-9a2.27,2.27,0,0,1,.72-1.73,2.37,2.37,0,0,1,1.68-.67H156.6a2.51,2.51,0,0,1,1.78.67,2.27,2.27,0,0,1,.72,1.73v8.16a3.62,3.62,0,0,1-.48,1.87,5.11,5.11,0,0,1-1.06,1.3L143,66.06l.67.2a28.35,28.35,0,0,1,9.79,2.92,17.32,17.32,0,0,1,6.82,6.29,19.26,19.26,0,0,1,2.49,10.27A17.82,17.82,0,0,1,159.05,97a23.86,23.86,0,0,1-10,7.35A38,38,0,0,1,134.52,107Z"/></g></svg>