<svg id="Layer_1" data-name="Layer 1" xmlns="http://www.w3.org/2000/svg" viewBox="0 0 774.1 669.9"><defs><style>.cls-1{fill:#eaeaec;}.cls-2{fill:#bcb28e;}.cls-3{fill:#6d6d7a;}.cls-4{fill:#cacaca;}.cls-5{fill:#2f2e41;}.cls-6{fill:#444354;}.cls-7{fill:#fff;}.cls-8{fill:#c1c0c6;}.cls-9{fill:#82828d;}.cls-10{fill:#ffb6b6;}.cls-11{fill:#a0616a;}</style></defs><path class="cls-1" d="M611.3,55.3c-.9-.6-1.8-1.1-2.6-1.7a374.51,374.51,0,0,0-80.3-38.9l-6.5,90.2H480.4V1.5C477.8,1,475.2.4,472.5,0V104.9H423.2A102.26,102.26,0,0,1,321,2.7h0l-7.9,1.8V104.9H273l-6.2-86a378.58,378.58,0,0,0-81.9,43.5c-.4.3-.9.6-1.3.9-2.2,1.6-4.4,3.1-6.6,4.7V412.2H295.3l-2.1-29-11.5-159H513.3l-11.5,159-2.1,29h117V58.8C614.8,57.6,613.1,56.5,611.3,55.3ZM313.1,198.1H279.7l-6.2-85.3h39.6Zm159.4,0H416.4v-1.7a6.23,6.23,0,0,0-6.2-6.2H385.8a6.23,6.23,0,0,0-6.2,6.2h0v1.7H321V112.8H472.5Zm7.9,0V112.8h40.9l-6.2,85.3Z" transform="translate(0)"/><path class="cls-2" d="M739.7,625.5l.8-17.6a55.5,55.5,0,0,1,26.5-6.7c-12.7,10.4-11.1,30.4-19.7,44.4a34.12,34.12,0,0,1-25,15.8l-10.6,6.5a57.21,57.21,0,0,1,12.1-46.4,53.85,53.85,0,0,1,10.2-9.4A112,112,0,0,0,739.7,625.5Z" transform="translate(0)"/><path class="cls-2" d="M168.8,606.3l-25.7-7.8a86.51,86.51,0,0,1,.1-41.7c10.6,22.7,40.8,27.9,58.2,45.9a52.27,52.27,0,0,1,13.9,42.9l5.6,18.2a87.08,87.08,0,0,1-64-35.3,86.11,86.11,0,0,1-10.1-18.6A212.72,212.72,0,0,0,168.8,606.3Z" transform="translate(0)"/><path class="cls-3" d="M719.8,665.1a2.06,2.06,0,0,1-2,2h-8a2,2,0,0,1-2-2h0V422c0-5.4-1.8-9.7-4-9.7H101.2c-2.2,0-4,4.4-4,9.7V663.6a2,2,0,0,1-1.8,2c-1.6.2-3.2.3-4.9.4h-.1c-.9.1-1.8.1-2.6.2h0c-.5-.8-.9-1.7-1.4-2.5a3.09,3.09,0,0,1-.2-.9V409.4c0-1.5.1-3,.2-4.4a41.78,41.78,0,0,1,.8-6c1.7-9.3,5.5-15.6,9.9-15.6h611a3.76,3.76,0,0,1,1.8.4,7.33,7.33,0,0,1,2.3,1.6,13.25,13.25,0,0,1,2.2,3c2.1,3.8,3.7,9.4,4.2,15.9v.2c.1,1.6.2,3.3.2,4.9l.1,21.4.1,12.8.3,40.1.1,14.2Z" transform="translate(0)"/><path class="cls-4" d="M772.9,669.6l-275.8.3a1.2,1.2,0,0,1,0-2.4h0l275.8-.3a1.2,1.2,0,1,1,0,2.4Z" transform="translate(0)"/><path class="cls-5" d="M430.7,312.3H381.9a2.66,2.66,0,0,0-2.6,2.6V392h54V314.9a2.58,2.58,0,0,0-2.56-2.6h0Zm-24.3,43.8a5.8,5.8,0,0,1-5.8-5.8v-8.9a5.8,5.8,0,0,1,11.6,0v8.9a5.8,5.8,0,0,1-5.8,5.8Z" transform="translate(0)"/><path class="cls-6" d="M511.5,191.9H302.8a6.82,6.82,0,0,0-6.8,6.8V339.6a6.82,6.82,0,0,0,6.8,6.8H511.6a6.82,6.82,0,0,0,6.8-6.8v-141A6.87,6.87,0,0,0,511.5,191.9Z" transform="translate(0)"/><path class="cls-7" d="M509.8,196.7H304.5a3.59,3.59,0,0,0-3.6,3.58h0V337.7a3.59,3.59,0,0,0,3.58,3.6H509.8a3.59,3.59,0,0,0,3.6-3.58V200.4A3.72,3.72,0,0,0,509.8,196.7Z" transform="translate(0)"/><path class="cls-6" d="M379.1,389.6V397a1.54,1.54,0,0,0,1.5,1.5H432a1.54,1.54,0,0,0,1.5-1.5v-7.4Z" transform="translate(0)"/><path class="cls-5" d="M469.8,401H347.7a2.22,2.22,0,0,1-2.2-2.2v-.5l1.9-9a2.28,2.28,0,0,1,2.2-1.8H467.9a2.15,2.15,0,0,1,2.2,1.8l1.9,9a2.27,2.27,0,0,1-1.7,2.7Z" transform="translate(0)"/><path class="cls-6" d="M350.9,389.2h2.8a.47.47,0,0,1,.5.44h0V391a.47.47,0,0,1-.44.5H350.9a.47.47,0,0,1-.5-.44h0V389.7A.54.54,0,0,1,350.9,389.2Z" transform="translate(0)"/><path class="cls-6" d="M358.5,389.2h2.8a.47.47,0,0,1,.5.44h0V391a.47.47,0,0,1-.44.5H358.5a.47.47,0,0,1-.5-.44h0V389.7a.47.47,0,0,1,.44-.5h.06Z" transform="translate(0)"/><path class="cls-6" d="M366,389.2h2.8a.47.47,0,0,1,.5.44h0V391a.47.47,0,0,1-.44.5H366a.47.47,0,0,1-.5-.44h0V389.7a.47.47,0,0,1,.44-.5H366Z" transform="translate(0)"/><path class="cls-6" d="M373.5,389.2h2.8a.47.47,0,0,1,.5.44h0V391a.47.47,0,0,1-.44.5H373.5a.47.47,0,0,1-.5-.44h0V389.7a.47.47,0,0,1,.44-.5h.06Z" transform="translate(0)"/><path class="cls-6" d="M381,389.2h2.8a.47.47,0,0,1,.5.44h0V391a.47.47,0,0,1-.44.5H381a.47.47,0,0,1-.5-.44h0V389.7A.54.54,0,0,1,381,389.2Z" transform="translate(0)"/><path class="cls-6" d="M388.5,389.2h2.8a.47.47,0,0,1,.5.44h0V391a.47.47,0,0,1-.44.5H388.5a.47.47,0,0,1-.5-.44h0V389.7C388.1,389.4,388.3,389.2,388.5,389.2Z" transform="translate(0)"/><path class="cls-6" d="M396.1,389.2h2.8a.47.47,0,0,1,.5.44h0V391a.47.47,0,0,1-.44.5H396.1a.47.47,0,0,1-.5-.44h0V389.7a.47.47,0,0,1,.44-.5h.06Z" transform="translate(0)"/><path class="cls-6" d="M403.6,389.2h2.8a.47.47,0,0,1,.5.44h0V391a.47.47,0,0,1-.44.5H403.6a.47.47,0,0,1-.5-.44h0V389.7a.47.47,0,0,1,.44-.5h.06Z" transform="translate(0)"/><path class="cls-6" d="M411.1,389.2h2.8a.47.47,0,0,1,.5.44h0V391a.47.47,0,0,1-.44.5H411.1a.47.47,0,0,1-.5-.44h0V389.7a.47.47,0,0,1,.44-.5h.06Z" transform="translate(0)"/><path class="cls-6" d="M418.6,389.2h2.8a.47.47,0,0,1,.5.44h0V391a.47.47,0,0,1-.44.5H418.6a.47.47,0,0,1-.5-.44h0V389.7C418.2,389.4,418.4,389.2,418.6,389.2Z" transform="translate(0)"/><path class="cls-6" d="M426.2,389.2H429a.47.47,0,0,1,.5.44h0V391a.47.47,0,0,1-.44.5H426.2a.47.47,0,0,1-.5-.44h0V389.7a.47.47,0,0,1,.44-.5h.06Z" transform="translate(0)"/><path class="cls-6" d="M433.7,389.2h2.8a.47.47,0,0,1,.5.44h0V391a.47.47,0,0,1-.44.5H433.7a.47.47,0,0,1-.5-.44h0V389.7a.47.47,0,0,1,.44-.5h.06Z" transform="translate(0)"/><path class="cls-6" d="M441.2,389.2H444a.47.47,0,0,1,.5.44h0V391a.47.47,0,0,1-.44.5H441.2a.47.47,0,0,1-.5-.44h0V389.7a.47.47,0,0,1,.44-.5h.06Z" transform="translate(0)"/><path class="cls-6" d="M448.7,389.2h2.8a.47.47,0,0,1,.5.44h0V391a.47.47,0,0,1-.44.5H448.7a.47.47,0,0,1-.5-.44h0V389.7A.54.54,0,0,1,448.7,389.2Z" transform="translate(0)"/><path class="cls-6" d="M456.3,389.2h2.8a.47.47,0,0,1,.5.44h0V391a.47.47,0,0,1-.44.5H456.3a.47.47,0,0,1-.5-.44h0V389.7a.47.47,0,0,1,.44-.5h.06Z" transform="translate(0)"/><path class="cls-6" d="M463.8,389.2h2.8a.47.47,0,0,1,.5.44h0V391a.47.47,0,0,1-.44.5H463.8a.47.47,0,0,1-.5-.44h0V389.7a.47.47,0,0,1,.44-.5h.06Z" transform="translate(0)"/><path class="cls-6" d="M350.8,392.9h2.8a.47.47,0,0,1,.5.44h0v1.36a.47.47,0,0,1-.44.5H350.8a.47.47,0,0,1-.5-.44h0V393.4C350.4,393.1,350.6,392.9,350.8,392.9Z" transform="translate(0)"/><path class="cls-6" d="M358.4,392.9h2.8a.47.47,0,0,1,.5.44h0v1.36a.47.47,0,0,1-.44.5H358.4a.47.47,0,0,1-.5-.44h0V393.4a.47.47,0,0,1,.44-.5h.06Z" transform="translate(0)"/><path class="cls-6" d="M365.9,392.9h2.8a.47.47,0,0,1,.5.44h0v1.36a.47.47,0,0,1-.44.5H365.9a.47.47,0,0,1-.5-.44h0V393.4a.47.47,0,0,1,.44-.5h.06Z" transform="translate(0)"/><path class="cls-6" d="M373.4,392.9h2.8a.47.47,0,0,1,.5.44h0v1.36a.47.47,0,0,1-.44.5H373.4a.47.47,0,0,1-.5-.44h0V393.4a.47.47,0,0,1,.44-.5h.06Z" transform="translate(0)"/><path class="cls-6" d="M380.9,392.9h2.8a.47.47,0,0,1,.5.44h0v1.36a.47.47,0,0,1-.44.5H380.9a.47.47,0,0,1-.5-.44h0V393.4A.54.54,0,0,1,380.9,392.9Z" transform="translate(0)"/><path class="cls-6" d="M388.5,392.9h2.8a.47.47,0,0,1,.5.44h0v1.36a.47.47,0,0,1-.44.5H388.5a.47.47,0,0,1-.5-.44h0V393.4a.47.47,0,0,1,.44-.5h.06Z" transform="translate(0)"/><path class="cls-6" d="M396,392.9h2.8a.47.47,0,0,1,.5.44h0v1.36a.47.47,0,0,1-.44.5H396a.47.47,0,0,1-.5-.44h0V393.4a.47.47,0,0,1,.44-.5H396Z" transform="translate(0)"/><path class="cls-6" d="M403.5,392.9h2.8a.47.47,0,0,1,.5.44h0v1.36a.47.47,0,0,1-.44.5H403.5a.47.47,0,0,1-.5-.44h0V393.4a.47.47,0,0,1,.44-.5h.06Z" transform="translate(0)"/><path class="cls-6" d="M411,392.9h2.8a.47.47,0,0,1,.5.44h0v1.36a.47.47,0,0,1-.44.5H411a.47.47,0,0,1-.5-.44h0V393.4A.54.54,0,0,1,411,392.9Z" transform="translate(0)"/><path class="cls-6" d="M418.6,392.9h2.8a.47.47,0,0,1,.5.44h0v1.36a.47.47,0,0,1-.44.5H418.6a.47.47,0,0,1-.5-.44h0V393.4a.47.47,0,0,1,.44-.5h.06Z" transform="translate(0)"/><path class="cls-6" d="M426.1,392.9h2.8a.47.47,0,0,1,.5.44h0v1.36a.47.47,0,0,1-.44.5H426.1a.47.47,0,0,1-.5-.44h0V393.4a.47.47,0,0,1,.44-.5h.06Z" transform="translate(0)"/><path class="cls-6" d="M433.6,392.9h2.8a.47.47,0,0,1,.5.44h0v1.36a.47.47,0,0,1-.44.5H433.6a.47.47,0,0,1-.5-.44h0V393.4a.47.47,0,0,1,.44-.5h.06Z" transform="translate(0)"/><path class="cls-6" d="M441.1,392.9h2.8a.47.47,0,0,1,.5.44h0v1.36a.47.47,0,0,1-.44.5H441.1a.47.47,0,0,1-.5-.44h0V393.4A.54.54,0,0,1,441.1,392.9Z" transform="translate(0)"/><path class="cls-6" d="M448.6,392.9h2.8a.47.47,0,0,1,.5.44h0v1.36a.47.47,0,0,1-.44.5H448.6a.47.47,0,0,1-.5-.44h0V393.4C448.2,393.1,448.4,392.9,448.6,392.9Z" transform="translate(0)"/><path class="cls-6" d="M456.2,392.9H459a.47.47,0,0,1,.5.44h0v1.36a.47.47,0,0,1-.44.5H456.2a.47.47,0,0,1-.5-.44h0V393.4a.47.47,0,0,1,.44-.5h.06Z" transform="translate(0)"/><path class="cls-6" d="M463.7,392.9h2.8a.47.47,0,0,1,.5.44h0v1.36a.47.47,0,0,1-.44.5H463.7a.47.47,0,0,1-.5-.44h0V393.4a.47.47,0,0,1,.44-.5h.06Z" transform="translate(0)"/><path class="cls-6" d="M387,397.4h29.1a.47.47,0,0,1,.5.44h0v1.36a.47.47,0,0,1-.44.5H387a.47.47,0,0,1-.5-.44h0V397.9A.54.54,0,0,1,387,397.4Z" transform="translate(0)"/><path class="cls-8" d="M499.5,215.7H307.4a.71.71,0,0,1-.71-.71v-.09a.67.67,0,0,1,.64-.7H499.5a.71.71,0,0,1,.71.71V215A.74.74,0,0,1,499.5,215.7Z" transform="translate(0)"/><ellipse class="cls-6" cx="320.5" cy="205.7" rx="4.5" ry="4.6"/><ellipse class="cls-6" cx="335.9" cy="205.7" rx="4.5" ry="4.6"/><ellipse class="cls-6" cx="351.4" cy="205.7" rx="4.5" ry="4.6"/><path class="cls-6" d="M490.2,202.2h-11a.79.79,0,0,0-.8.78h0a.86.86,0,0,0,.8.8h11a.79.79,0,0,0,.8-.78h0A.86.86,0,0,0,490.2,202.2Z" transform="translate(0)"/><path class="cls-6" d="M490.2,205.4h-11a.79.79,0,0,0-.8.78h0a.86.86,0,0,0,.8.8h11a.8.8,0,0,0,0-1.6Z" transform="translate(0)"/><path class="cls-6" d="M490.2,208.5h-11a.79.79,0,0,0-.8.78h0a.86.86,0,0,0,.8.8h11a.8.8,0,1,0,0-1.6Z" transform="translate(0)"/><path class="cls-9" d="M394.8,260.3h24a3.33,3.33,0,0,1,3.3,3.3h0a3.33,3.33,0,0,1-3.3,3.3h-24a3.33,3.33,0,0,1-3.3-3.3h0A3.33,3.33,0,0,1,394.8,260.3Z" transform="translate(0)"/><path class="cls-3" d="M379.3,273.4h55a3.33,3.33,0,0,1,3.3,3.3h0a3.33,3.33,0,0,1-3.3,3.3h-55a3.33,3.33,0,0,1-3.3-3.3h0a3.26,3.26,0,0,1,3.22-3.3h.08Z" transform="translate(0)"/><path class="cls-3" d="M379.3,286.4h55a3.33,3.33,0,0,1,3.3,3.3h0a3.33,3.33,0,0,1-3.3,3.3h-55a3.33,3.33,0,0,1-3.3-3.3h0A3.33,3.33,0,0,1,379.3,286.4Z" transform="translate(0)"/><path class="cls-6" d="M309.3,410.9h-60a8,8,0,0,0,0,16h22v62h16v-62h22a8,8,0,1,0,0-16Z" transform="translate(0)"/><path class="cls-6" d="M348.9,523.2H188.4a64.7,64.7,0,0,1-63.9-55.6l-5.7-20.9A470.89,470.89,0,0,0,65.6,323.8c-10.7-17.5-16.3-34.3-3.7-50.6.1-.1.2-.3.3-.4,10.1-13.1,60.2-16,76.6-16.5H242.4a48.7,48.7,0,0,1,42.2,26.9,50.17,50.17,0,0,1-2.9,51.5c-35.1,52.7-45.8,85.7-34.8,107.1,10.6,20.7,43.2,31.3,102.6,33.3,15.9.5,23.3,13,23.3,24.3,0,11-7,23.2-22.6,23.8Z" transform="translate(0)"/><path class="cls-6" d="M215.7,665.7h60a8,8,0,1,0,0-16h-22v-135h-16v135h-22a8,8,0,0,0,0,16Z" transform="translate(0)"/><path class="cls-5" d="M210.9,261.2l1.3,7.6c.6,3.7,2.7,29.9,1.2,33-.1-5.8-11-15-18-12.9l-11,2.5-6.9,1.5-5.6,1.2-16.2,3.5a1.23,1.23,0,0,0-.1-.6c0-.2-.1-.5-.1-.7a15.82,15.82,0,0,0-1.6-4.3,11.6,11.6,0,0,1-1.5,5.1.09.09,0,0,1-.08.1h0a6.62,6.62,0,0,1-1,1.3h0s-3.3-53.1-3-53.6c.3-.3.5-.7.8-1s.5-.7.8-1l.1-.1c.8-.9,1.6-1.8,2.5-2.7.3-.2.5-.5.8-.7a37.43,37.43,0,0,1,14.2-8.2,12.65,12.65,0,0,1,1.8-.5,13.65,13.65,0,0,1,1.9-.4h.2c.3-.1.6-.1.9-.2s.8-.1,1.1-.2a38.32,38.32,0,0,1,14.7.8h0a36.93,36.93,0,0,1,11.3,5c6,4,8.3,10.4,10,17.6C209.8,256,210.3,258.6,210.9,261.2Z" transform="translate(0)"/><polygon class="cls-10" points="270 611.3 280.3 616.9 307.7 579.1 292.4 570.8 270 611.3"/><path class="cls-5" d="M274.9,597.8l18.8,5.9-3,7.9,12.9,18.7a5.35,5.35,0,0,1-1.3,7.3,5.14,5.14,0,0,1-4.8.6l-21.8-8.3-.8-9.2-4.4,7.2-8.2-3.1Z" transform="translate(0)"/><path class="cls-10" d="M328.5,442.1a11.6,11.6,0,0,1-14-8.5,6.78,6.78,0,0,1-.3-2L226,399.8l16.2-14.1L325.9,419a11.63,11.63,0,0,1,11.6,11.66h0A11.74,11.74,0,0,1,328.5,442.1Z" transform="translate(0)"/><path class="cls-9" d="M201.4,321.2s-14.8.3-16.2,17.3,31.1,58.9,36.1,65.8,60.8,15.4,60.8,15.4l19-13.8c-19.9-12.9-38.1-22.8-50.3-22.4Z" transform="translate(0)"/><path class="cls-10" d="M183.2,396l3.6,15.5s0,14.3,2.6,17,58-2.7,58-2.7-5.9-23.1-5.8-40.6Z" transform="translate(0)"/><path class="cls-5" d="M300.3,594.9l-20-11c-.4-26,15.3-61.2,33.8-98.1-41.5,7.1-80.7,9.4-114.6.8a21.92,21.92,0,0,1-15.7-26.5,9.89,9.89,0,0,1,.5-1.6c4.1-12.4-5-20.1,3.3-33.7,22-7.5,42.9-9.6,62-3l12,26.5,59.3-7.7a21.84,21.84,0,0,1,24.3,19.07h0v.23c.1.6.1,1.3.2,1.9C333.5,518,320,568.6,300.3,594.9Z" transform="translate(0)"/><circle class="cls-10" cx="180.9" cy="264.3" r="24.8"/><path class="cls-9" d="M175.1,297.6l22.9-1.3a4.66,4.66,0,0,1,4.6,2.9l6.5,15.7L236,337.1s10.6,13.5,10.7,31,3.8,57.9,3.8,57.9-15.5-21.8-25.1-16c-1.6,1-2.2,3-3.9,4-.9.5-2.8,0-3.7.5-13.2,7.8-27,15.5-28.2,14.1-2.5-2.6-5.6-16.1-5.6-16.1l-20.9-76.9a28.76,28.76,0,0,1,4-24c1.5-2.1,3-3.6,4.4-3.8C174.5,307.1,172.8,299.9,175.1,297.6Z" transform="translate(0)"/><polygon class="cls-10" points="369.6 643.8 379.2 637.1 357.4 595.9 343.1 605.8 369.6 643.8"/><path class="cls-5" d="M371,616.2l-15.1,13.5c-24-26.8-42.2-64.4-57.6-107.1-40.4-11.8-70.8-30.9-97.4-53.5-9-7.6-15.8-17.4-8.1-26.7.4-.4.7-.9,1.1-1.3,9.1-9.3,32.1-7.6,45.6-16.1l30.1,32.2-1.9,8.6L324.3,485a21.82,21.82,0,0,1,13.4,27.8h0c0,.1,0,.1-.1.2a12.66,12.66,0,0,1-.7,1.8Z" transform="translate(0)"/><path class="cls-5" d="M364,641.1l15.4-12.2,4.8,6.9,22.7-.1a5.25,5.25,0,0,1,5.3,5.2h0a5.1,5.1,0,0,1-2.3,4.3l-19.2,13.3-8.1-4.5,3.5,7.7-7.2,5Z" transform="translate(0)"/><path class="cls-10" d="M208.9,491.4a11.61,11.61,0,0,1-6.2-15.2,15.83,15.83,0,0,1,1-1.8l-51.8-78.1,21.4-1.6,47.2,76.7a11.64,11.64,0,0,1-11.6,20Z" transform="translate(0)"/><path class="cls-9" d="M179.1,318.5s-12.1-8.6-23.3,4.2-10.3,65.8-10.4,74.3c0,2.7,3.8,8.4,9.2,15.1,2.4,3,5.1,6.2,7.8,9.3,1.6,1.8.2,5.6,1.8,7.4s6.2,1.5,7.7,3.1c7.2,7.8,13,13.7,13,13.7l23.4.3c.3-17.4-11.7-33-27-48Z" transform="translate(0)"/><path class="cls-5" d="M211.9,252.2c-.9.5-1.8.9-2.7,1.3a80.37,80.37,0,0,1-10.9,4.4,13.16,13.16,0,0,0-2.8-4.5,10,10,0,0,1-.5,5.4,29.84,29.84,0,0,1-17-.7c3.6,6.7,6.3,20.7,6.1,33.2-.1,6.6-1,12.8-2.9,17.3l-2.5-7.7a45.31,45.31,0,0,0-1.4-8.1c-1.7-7.4-3.3-2.5-5.6,1.2l-16.2,3.5a1.23,1.23,0,0,0-.1-.6c0-.2-.1-.5-.1-.7a15.82,15.82,0,0,0-1.6-4.3,11.6,11.6,0,0,1-1.5,5.1.09.09,0,0,1-.08.1h0a6.62,6.62,0,0,1-1,1.3h0c-10.5,1.4-17.8-52.6-3-53.6.4,0,.5-.7.8-1s.5-.7.8-1l.1-.1c.8-.9,1.6-1.8,2.5-2.7.3-.2.5-.5.8-.7a38.91,38.91,0,0,1,14.2-8.2,12.65,12.65,0,0,1,1.8-.5,13.65,13.65,0,0,1,1.9-.4h.2c.3-.1.6-.1.9-.2s.8-.1,1.1-.2a9.41,9.41,0,0,1,3.5,3.1l10.4-2.1a2.41,2.41,0,0,1,.8-.1h0C201,228.7,209.3,239.1,211.9,252.2Z" transform="translate(0)"/><path class="cls-5" d="M155.5,242.7c-2.2,1.6-4.5,3.2-7.3,3.6s-5.9-.9-6.6-3.5c-.9-3.2,2-6.1,4.6-8.2l8.3-6.6a19.65,19.65,0,0,1,5.1-3.3,6.79,6.79,0,0,1,5.9.2,6.29,6.29,0,0,1,2.8,5.5,11.93,11.93,0,0,1-2,6,21.09,21.09,0,0,1-13.7,9.3" transform="translate(0)"/><path class="cls-6" d="M218.3,414.9h-60a8,8,0,0,0,0,16h22v62h16v-62h22a8,8,0,1,0,0-16Z" transform="translate(0)"/><path class="cls-4" d="M439.9,668.6l-438.7.3a1.2,1.2,0,1,1,0-2.4l438.8-.3a1.16,1.16,0,0,1,1.2,1.12h0v.08A1.3,1.3,0,0,1,439.9,668.6Z" transform="translate(0)"/><polygon class="cls-11" points="567.6 535.8 577.4 546.4 623.1 513.8 608.7 498.1 567.6 535.8"/><path class="cls-5" d="M587.8,550.8h0l-1-10.6-.5-.2-2.6-1.2-12.4-5.9-.3-.3-2.5-2.7-13.8,12.7L573.4,563l12.8,14,.4-.4a18.23,18.23,0,0,0,1.26-25.74l-.06-.06Z" transform="translate(0)"/><polygon class="cls-11" points="517 642 530.8 646.2 553.6 594.8 533.2 588.6 517 642"/><path class="cls-5" d="M552.8,653.4a18,18,0,0,0-10.7-8.8l-6.3-8.7h-.5l-16.6,1.5-.4-.1-3.5-1.1-5.4,17.9L554,667.6l.2-.6A17.62,17.62,0,0,0,552.8,653.4Z" transform="translate(0)"/><path id="b2eb929e-713e-4b71-a146-193a455bcc79-1491" class="cls-5" d="M631,373.3s88.3,85.2,32.5,111.6H646.3s-5.2-18.4-17-33.9c-1.6-2.1-7.7-1.7-9.4-3.8-10.3-12.7-21.6-23.6-29.3-23.2l1.9,58.9,3,21c1.6,10.9-42.9,105.6-42.9,105.6l-27.9-11s29.1-78.1,29.5-89.3L530.9,385.4Z" transform="translate(0)"/><path class="cls-9" d="M638.4,377.5a5.31,5.31,0,0,1-1.7,1.6,11,11,0,0,1-3.6,1.3c-19.9,4.5-84.8,13.9-101.6,9.4-2.1-.5-3.4-1.3-3.9-2.3-1.4-3.2-1.2-16.5-.4-32.6.2-3,3.5-6.3,3.7-9.5.1-2.4-2.8-4.6-2.7-7,1.1-16.3,2.5-32.9,3.5-43.4.6-6.8,1-11,1-11l-10.2-64.6.5-.8.5-.3,33-16.4,1.8-4.6a7.16,7.16,0,0,1,6.6-4.5l21.8-.1a7.34,7.34,0,0,1,5.8,2.9l5.9,8.2,39,25-.2.5L618.8,285l-.1,4.3h0l-.7,34.9,1.9,4.7-2.1,7.8s1,9.1,6.2,15.8c4.8,6.1,10.8,12.5,13.6,17.7h0C639.1,373.1,639.6,375.6,638.4,377.5Z" transform="translate(0)"/><path id="e9cec503-1de8-4692-84d1-4d2e854ea0bd-1492" class="cls-5" d="M667.7,479.8l-4.7,6s-43.4,30.4-44.9,33.2l-6.9,6.5-16.6-17.7,8.6-10.8a67,67,0,0,1,26-19.9h0l13.2-11.7Z" transform="translate(0)"/><path class="cls-11" d="M640.1,394.6l-7.9-76.5-2.1-31.5,22.1-4s-.9,22.5,2,35.2c2.9,12.5.4,75.1.2,76.7a10.76,10.76,0,1,1-15.2.8,3.08,3.08,0,0,0,.9-.7Z" transform="translate(0)"/><path class="cls-9" d="M661.7,334l-28.4,5.9-2.5-9.9-2.9-3.1-5.8-30.3-8.3-17.8L616,218l21.1,11.2h0c3.2,3.5,5.4,8.5,9.1,13.5,11.7,15.8,12.9,54.4,12.6,75.5,0,.3.3.7.8,1.1a11.72,11.72,0,0,1,2.1,14.7Z" transform="translate(0)"/><path class="cls-11" d="M511.4,397.6l7.9-76.5,2.1-31.5-22.1-4s.9,22.5-2,35.2c-2.9,12.5-.4,75.1-.2,76.7a10.76,10.76,0,1,0,15.2.8,6,6,0,0,1-.9-.7Z" transform="translate(0)"/><path class="cls-9" d="M537.8,281.8,531.6,295l-2.2,4.6-5.8,30.3-2.9,3.1-2.5,9.9-1.2-.2-21.1-4.4-6.2-1.3a11.56,11.56,0,0,1,2.1-14.6c.4-.4.8-.8.8-1.1-.3-21.1.9-59.6,12.6-75.4,3.7-5,5.9-10,9.2-13.5h0l7.9-12.9.5-.8.5-.3Z" transform="translate(0)"/><circle id="e944ea38-edcc-43c9-bf24-dbaf21228ba4" class="cls-11" cx="575.1" cy="157.6" r="29"/><path class="cls-5" d="M607.6,144.9c-.1-4.9-.7-11.3-4.1-16.3-2.9-4.2-8.8-7.6-14.3-5.9a6,6,0,0,0-3-5.5c-2.1-1.3-4.6-1.5-6.8-1.7-5.6-.5-11.3-1.1-17,0-6.3,1.2-11.5,4.5-14.2,8.9l-.1.1-.5,2.7a2.56,2.56,0,0,1-1.2,1.7,2.23,2.23,0,0,1-2.1.1,2.3,2.3,0,0,0-2.9,1.3,2.16,2.16,0,0,0-.1,1.1l.2,1.1-1.6-.3a2.42,2.42,0,0,0-2.7,1.8,2.45,2.45,0,0,0,.1,1.2l.4,1.2a2.53,2.53,0,0,0-1.8.8,2.12,2.12,0,0,0-.3,2.6,21.45,21.45,0,0,0,7.3,7.4,16.84,16.84,0,0,0,4.4,1.9,3.78,3.78,0,0,0,1,.2,104,104,0,0,0,37.3,1.1,21.44,21.44,0,0,0-.8,7.6,8,8,0,0,0,4.8,6.7,11,11,0,0,0,1.7.4,10.78,10.78,0,0,1,1.7.4,4.86,4.86,0,0,1,2.9,6.2,5.08,5.08,0,0,1-1.5,2.1s2.6,2.2,3,2.1a6.78,6.78,0,0,0,3.1-2.7C605.5,166.1,607.9,156.6,607.6,144.9Z" transform="translate(0)"/></svg>