<svg id="Layer_1" data-name="Layer 1" xmlns="http://www.w3.org/2000/svg" viewBox="0 0 144.79 144"><defs><style>.cls-1{fill:#bcb28e;}.cls-2{fill:#2f2e41;}</style></defs><g id="Step_1" data-name="Step 1"><path class="cls-1" d="M107.49,10.53a1,1,0,0,0-.37-1.39A72.05,72.05,0,0,0,72,0C32.5,0,0,32.5,0,72s32.5,72,72,72a72.05,72.05,0,0,0,35.12-9.14,1,1,0,0,0,.37-1.39l-3-5.19a1,1,0,0,0-1.35-.37,64,64,0,1,1,0-111.82,1,1,0,0,0,1.35-.37Z"/><line class="cls-1" x1="104" y1="127.43" x2="104" y2="127.43"/><path class="cls-2" d="M71.54,107a33.31,33.31,0,0,1-12-2,22.89,22.89,0,0,1-8.4-5.42,23.63,23.63,0,0,1-5-8.07,33.07,33.07,0,0,1-2-9.88c-.07-1.73-.11-3.7-.15-5.91s0-4.45,0-6.72.08-4.3.15-6.09a31.75,31.75,0,0,1,2.06-9.84,22.86,22.86,0,0,1,5.19-8,23.65,23.65,0,0,1,8.44-5.33,33,33,0,0,1,11.76-1.92,32.85,32.85,0,0,1,11.81,1.92,23.75,23.75,0,0,1,8.4,5.33,23.39,23.39,0,0,1,5.23,8,29.1,29.1,0,0,1,2,9.84q.19,2.68.24,6.09t0,6.72q0,3.32-.24,5.91a30.21,30.21,0,0,1-2,9.88,23.91,23.91,0,0,1-5.09,8.07A22.85,22.85,0,0,1,83.59,105,33.18,33.18,0,0,1,71.54,107Zm0-13.92q5,0,7.25-3.22a15.35,15.35,0,0,0,2.35-8.68q.19-2.79.24-5.86t0-6.14q0-3.08-.24-5.67a15.21,15.21,0,0,0-2.35-8.54q-2.25-3.27-7.25-3.36-5,.09-7.2,3.36a16.06,16.06,0,0,0-2.4,8.54c-.06,1.73-.11,3.62-.14,5.67s0,4.09,0,6.14.08,4,.14,5.86a15.59,15.59,0,0,0,2.5,8.68C66,92,68.34,93,71.54,93Z"/><path class="cls-2" d="M129.91,106a2.37,2.37,0,0,1-1.68-.67,2.26,2.26,0,0,1-.72-1.73V57.9L114.36,68a2.1,2.1,0,0,1-1.78.48,2.67,2.67,0,0,1-1.58-1L105.34,60a2.63,2.63,0,0,1-.44-1.88A2.15,2.15,0,0,1,106,56.56l22.08-17.09a4.08,4.08,0,0,1,1.1-.53,4.82,4.82,0,0,1,1.2-.14h12a2.37,2.37,0,0,1,1.68.67,2.27,2.27,0,0,1,.72,1.73v62.4a2.26,2.26,0,0,1-.72,1.73,2.37,2.37,0,0,1-1.68.67Z"/></g></svg>