<svg id="Layer_1" data-name="Layer 1" xmlns="http://www.w3.org/2000/svg" viewBox="0 0 144 143.97"><defs><style>.cls-1{fill:#bcb28e;}</style></defs><g id="Support_logo" data-name="Support logo"><path class="cls-1" d="M133.88,0H10.12A10.13,10.13,0,0,0,0,10.12V100.3a10.12,10.12,0,0,0,10.12,10.11H49l-2.81,14H38A9.78,9.78,0,1,0,38,144H106a9.78,9.78,0,1,0,0-19.56H97.56l-3-14h39.33A10.12,10.12,0,0,0,144,100.3V10.12A10.13,10.13,0,0,0,133.88,0ZM98.52,128.91H106a5.28,5.28,0,1,1,0,10.56H38a5.28,5.28,0,1,1,0-10.56H98.52ZM93,124.41H50.74l2.82-14H90ZM139.5,100.3a5.63,5.63,0,0,1-5.62,5.62H10.12A5.63,5.63,0,0,1,4.5,100.3V90.72h135ZM4.5,86.22V10.12A5.62,5.62,0,0,1,10.12,4.5H133.88a5.62,5.62,0,0,1,5.62,5.62v76.1Z"/><path class="cls-1" d="M126.08,101.09h4.45a2.25,2.25,0,0,0,0-4.5h-4.45a2.25,2.25,0,0,0,0,4.5Z"/><path class="cls-1" d="M96.82,31.25a25.07,25.07,0,0,0-49.94,0,12.28,12.28,0,0,0-10.7,12.16v10a12.29,12.29,0,0,0,9.89,12,11.72,11.72,0,0,0,2.38.24h0a25.26,25.26,0,0,0,5.58,8.54,25,25,0,0,0,15.53,7.3c.74.07,1.49.11,2.25.11s1.51,0,2.25-.11a24.83,24.83,0,0,0,12.27-4.54h.43A2.24,2.24,0,0,0,89,74.75c.26-.24.51-.49.76-.75s.78-.82,1.14-1.25h5.57A2.26,2.26,0,0,0,98.7,71l1.56-6.47a11.18,11.18,0,0,0,1.85-1,12.28,12.28,0,0,0,5.37-9.26c0-.3,0-.6,0-.91v-10A12.27,12.27,0,0,0,96.82,31.25Zm-52,29a7.77,7.77,0,0,1-4.18-6.89v-10a7.76,7.76,0,0,1,6.09-7.58V56.51c0,.6,0,1.18.07,1.77A24.88,24.88,0,0,0,47.18,61,7.48,7.48,0,0,1,44.86,60.25Zm39.69,12.2H77.17V71h7.38Zm7.88-18.6v2.66a20.21,20.21,0,0,1-.29,3.41c-.06.41-.14.81-.24,1.22a20.1,20.1,0,0,1-1.61,4.5A21.52,21.52,0,0,1,88.91,68a2.24,2.24,0,0,0-2.11-1.49H74.92a2.24,2.24,0,0,0-2.24,2.25V74.7a2.24,2.24,0,0,0,1.86,2.21L74.1,77a21.15,21.15,0,0,1-4.5,0A20.53,20.53,0,0,1,59.42,72.9a20.25,20.25,0,0,1-3.81-3.76,20.46,20.46,0,0,1-2.21-3.5,21.14,21.14,0,0,1-1.61-4.5c-.09-.4-.17-.81-.24-1.22a21.3,21.3,0,0,1-.28-3.41V49.45a48.69,48.69,0,0,0,8.43-2.58A49.73,49.73,0,0,0,75.54,36.5a54.43,54.43,0,0,0,11.53,9.93,51.41,51.41,0,0,0,5.36,3Zm0-18.21v8.74c-1-.53-2-1.11-2.94-1.73A50.49,50.49,0,0,1,77.42,31.76a2.24,2.24,0,0,0-1.67-.84,2.2,2.2,0,0,0-1.72.71A45.43,45.43,0,0,1,58,42.71a44.62,44.62,0,0,1-6.73,2.14V33.5a20.19,20.19,0,0,1,.13-2.35,20.58,20.58,0,0,1,40.89,0,20.18,20.18,0,0,1,.14,2.35Zm2.31,32.61H94a24.64,24.64,0,0,0,1.2-2.61h.17ZM103,48.67v4.69a7.77,7.77,0,0,1-4.18,6.89l-.2.1a2.27,2.27,0,0,0-1.78.62l-.35.06a22.71,22.71,0,0,0,.35-2.75c0-.59.06-1.17.06-1.77V35.83a7.76,7.76,0,0,1,6.1,7.58Z"/></g></svg>