<svg id="Layer_1" data-name="Layer 1" xmlns="http://www.w3.org/2000/svg" viewBox="0 0 250.12 50"><path id="Wired" d="M211,7.77V42.36h17c4.76,0,7.51-.76,9.52-2.51,2.51-2.26,3.76-6.27,3.76-14.79s-1.25-12.53-3.76-14.78c-2-1.76-4.76-2.51-9.52-2.51Zm23.31,17.29c0,7.52-.5,9.28-2,10.28-1,.75-2.26,1-4.77,1H218V13.53h9.52c2.51,0,3.76,0,4.77,1C233.83,15.79,234.33,17.54,234.33,25.06ZM250.12,50h-50V0h50ZM159.27,13.53V7.77h29.57v11h-6.26V13.53h-12V21.8h9.52v5.52h-9.52v9.27h12.28v-6h6.26V42.36H159.27V36.59H164V13.53Zm-26.82,19.8a40.68,40.68,0,0,0,.75,8.77H140a71.7,71.7,0,0,1-.5-9.27c-.25-5-1.75-5.76-5.26-6.51,4-.76,5.76-2.51,5.76-8.78,0-5-.75-7-2.25-8.27-1-1-2.76-1.5-5.52-1.5h-21V42.36h7V28.82h9.77c2,0,2.76.25,3.51.75S132.45,30.83,132.45,33.33Zm-14.28-10V13.78h11.28c1.5,0,2,.25,2.25.51.5.5,1,1.25,1,4.26s-.5,4-1,4.51c-.25.25-.75.5-2.25.5ZM150,50H99.87V0h50V50ZM86.84,36.59v5.77H63V36.59h8.52V13.53H63V7.77H86.84v5.76H78.32V36.59ZM46.62,7.77H40.1L35.34,35.09,29.82,9.77c-.25-1.75-1-2-2.5-2H23.81c-1.5,0-2.26.5-2.51,2L15.79,35.09,11,7.77H4L10.78,40.6c.25,1.5.75,1.76,2.5,1.76H18c1.51,0,2-.26,2.51-1.76l5.26-23.81L31.08,40.6c.25,1.5.75,1.76,2.5,1.76h4.51c1.51,0,2.26-.26,2.51-1.76ZM50.12,50H0V0H50V50Z"/></svg>